<?xml version="1.0" encoding="utf-8"?>
<!-- Generator: Adobe Illustrator 21.0.0, SVG Export Plug-In . SVG Version: 6.00 Build 0)  -->
<svg version="1.1" xmlns="http://www.w3.org/2000/svg" xmlns:xlink="http://www.w3.org/1999/xlink" x="0px" y="0px"
	 viewBox="0 0 1400 980" enable-background="new 0 0 1400 980" xml:space="preserve">
<g id="background">
</g>
<g id="object">
	<linearGradient id="SVGID_1_" gradientUnits="userSpaceOnUse" x1="700" y1="517.0891" x2="700" y2="-49.5749">
		<stop  offset="0" style="stop-color:#0F0E0E"/>
		<stop  offset="0.8974" style="stop-color:#231F20"/>
	</linearGradient>
	<rect fill="url(#SVGID_1_)" width="1400" height="980"/>
	<g>
		<polygon fill="#404041" points="1307.1,105.2 1340.6,122.4 1379.5,46.6 1400,57.2 1400,55.5 1378.8,44.6 1339.9,120.3 
			1309.2,104.5 1348.1,28.8 1292,0 1288.7,0 1346,29.4 		"/>
		<polygon fill="#404041" points="0,19.6 0.1,19.4 0,19.4 		"/>
		<polygon fill="#404041" points="42.1,16.8 117.8,55.7 124.4,42.7 48.7,3.8 50.7,0 49,0 46.7,4.5 122.4,43.4 117.1,53.6 41.4,14.7 
			2.5,90.4 0,89.2 0,90.9 3.2,92.5 		"/>
		<polygon fill="#404041" points="47,32.3 122.8,71.2 140,37.7 66.5,0 63.2,0 137.9,38.4 122.1,69.1 46.4,30.2 7.5,106 0,102.1 
			0,103.8 8.2,108 		"/>
		<polygon fill="#404041" points="165,92.9 198.5,110.1 237.4,34.4 313.1,73.2 330.3,39.8 254.6,0.9 255,0 253.3,0 252.5,1.5 
			328.3,40.4 312.5,71.2 236.7,32.3 197.8,108 167.1,92.2 206,16.5 173.8,0 170.5,0 203.9,17.2 		"/>
		<polygon fill="#404041" points="180.6,87.9 193.5,94.5 232.4,18.8 308.1,57.7 314.8,44.7 239.1,5.9 242.1,0 240.4,0 237,6.5 
			312.7,45.4 307.5,55.7 231.7,16.8 192.9,92.5 182.6,87.2 221.5,11.5 199.1,0 195.8,0 219.4,12.2 		"/>
		<polygon fill="#404041" points="52,47.8 127.8,86.7 155.5,32.7 91.8,0 88.4,0 153.4,33.4 127.1,84.7 51.4,45.8 12.5,121.5 
			0,115.1 0,116.8 13.2,123.6 		"/>
		<polygon fill="#404041" points="1322.6,100.2 1335.6,106.8 1374.5,31.1 1400,44.2 1400,42.5 1373.8,29.1 1334.9,104.8 
			1324.7,99.5 1363.6,23.8 1317.3,0 1313.9,0 1361.5,24.5 		"/>
		<polygon fill="#404041" points="227.4,0 224.3,0 226.8,1.3 		"/>
		<polygon fill="#404041" points="0,184.9 0,186.6 27.1,200.5 0,253.1 0,256.5 29.1,199.8 		"/>
		<polygon fill="#404041" points="15.6,14.4 0,6.4 0,8.1 13.6,15.1 0,41.5 0,44.9 		"/>
		<path fill="#404041" d="M421.2,769.3l38.9-75.7l-13-6.7l-38.9,75.7l-75.7-38.9l-6.7,13l75.7,38.9l-38.9,75.7l13,6.7l38.9-75.7
			l75.7,38.9l6.7-13L421.2,769.3z M489.6,819.1l-75.7-38.9L375,855.9l-10.2-5.3l38.9-75.7l-75.7-38.9l5.3-10.2l75.7,38.9l38.9-75.7
			l10.2,5.3L419.2,770l75.7,38.9L489.6,819.1z"/>
		<polygon fill="#404041" points="40,207.1 115.7,246 122.4,233 46.7,194.2 85.6,118.4 72.6,111.8 33.7,187.5 0,170.2 0,171.9 
			34.4,189.6 73.3,113.8 83.5,119.1 44.6,194.8 120.3,233.7 115.1,244 39.3,205.1 0.5,280.8 0,280.6 0,282.3 1.1,282.8 		"/>
		<polygon fill="#404041" points="0,231.2 13.6,204.8 0,197.8 0,199.5 11.5,205.5 0,227.9 		"/>
		<polygon fill="#404041" points="283.2,876.9 249.8,859.7 210.9,935.4 135.1,896.5 117.9,930 193.7,968.9 188,980 189.7,980 
			195.7,968.2 120,929.3 135.8,898.6 211.5,937.5 250.4,861.7 281.2,877.5 242.3,953.3 294.4,980 297.7,980 244.3,952.6 		"/>
		<polygon fill="#404041" points="45,222.6 120.7,261.5 137.9,228.1 62.2,189.2 101.1,113.4 67.6,96.2 28.7,172 0,157.2 0,158.9 
			29.4,174 68.3,98.3 99,114.1 60.1,189.8 135.9,228.7 120.1,259.5 44.3,220.6 5.5,296.3 0,293.5 0,295.2 6.1,298.4 		"/>
		<polygon fill="#404041" points="1291.6,110.2 1345.6,137.9 1384.5,62.2 1400,70.1 1400,68.4 1383.8,60.1 1344.9,135.8 
			1293.6,109.5 1332.5,33.8 1266.8,0 1263.4,0 1330.5,34.4 		"/>
		<polygon fill="#404041" points="1184.4,0 1182.7,0 1177.8,9.4 1159.4,0 1156.1,0 1178.5,11.5 		"/>
		<polygon fill="#404041" points="50,238.2 125.7,277.1 153.5,223.1 77.7,184.2 116.6,108.4 62.6,80.7 23.7,156.4 0,144.3 0,146 
			24.4,158.5 63.3,82.8 114.6,109.1 75.7,184.8 151.4,223.7 125.1,275 49.3,236.1 10.4,311.9 0,306.5 0,308.2 11.1,313.9 		"/>
		<polygon fill="#404041" points="298.8,871.9 244.8,844.2 205.9,919.9 130.1,881 102.4,935 178.1,973.9 175,980 176.7,980 
			180.2,973.2 104.5,934.3 130.8,883 206.5,921.9 245.4,846.2 296.7,872.5 257.8,948.3 319.6,980 323,980 259.9,947.6 		"/>
		<polygon fill="#404041" points="29.1,10.1 0,66.8 0,70.1 31.2,9.5 12.7,0 9.4,0 		"/>
		<polygon fill="#404041" points="751.6,94 764.6,100.7 803.4,25 879.2,63.9 885.8,50.9 810.1,12 816.3,0 814.5,0 808,12.7 
			883.8,51.6 878.5,61.8 802.8,22.9 763.9,98.6 753.7,93.4 792.5,17.6 758.2,0 754.8,0 790.5,18.3 		"/>
		<polygon fill="#404041" points="720.5,104 774.5,131.8 813.4,56 889.2,94.9 916.9,40.9 841.2,2 842.2,0 840.5,0 839.1,2.7 
			914.8,41.6 888.5,92.9 812.8,54 773.9,129.7 722.6,103.4 761.5,27.6 707.7,0 704.3,0 759.4,28.3 		"/>
		<polygon fill="#404041" points="736.1,99 769.5,116.2 808.4,40.5 884.2,79.4 901.4,45.9 825.6,7 829.2,0 827.5,0 823.6,7.7 
			899.3,46.6 883.5,77.3 807.8,38.4 768.9,114.2 738.1,98.4 777,22.6 732.9,0 729.6,0 775,23.3 		"/>
		<polygon fill="#404041" points="801.6,0 799.9,0 797.1,5.4 786.7,0 783.4,0 797.8,7.4 		"/>
		<polygon fill="#404041" points="530.2,102 584.2,129.7 623.1,54 698.8,92.9 726.5,38.9 650.9,0 649.1,0 648.8,0.6 724.5,39.5 
			698.1,90.8 622.4,51.9 583.5,127.6 532.2,101.3 571.1,25.6 521.3,0 518,0 569.1,26.2 		"/>
		<polygon fill="#404041" points="1116.8,103.1 1150.2,120.3 1189.1,44.6 1264.9,83.5 1282.1,50 1206.3,11.1 1212,0 1210.3,0 
			1204.3,11.8 1280,50.7 1264.2,81.4 1188.5,42.5 1149.6,118.3 1118.8,102.5 1157.7,26.7 1105.6,0 1102.3,0 1155.6,27.4 		"/>
		<polygon fill="#404041" points="910.9,106.1 964.9,133.8 1003.8,58.1 1079.5,97 1107.2,43 1031.5,4.1 1033.6,0 1031.9,0 
			1029.4,4.7 1105.2,43.6 1078.8,94.9 1003.1,56 964.2,131.7 912.9,105.4 951.8,29.7 894,0 890.7,0 949.8,30.3 		"/>
		<polygon fill="#404041" points="993,0 991.3,0 987.5,7.4 973.1,0 969.7,0 988.1,9.5 		"/>
		<polygon fill="#404041" points="149.5,97.9 203.5,125.6 242.4,49.9 318.1,88.8 345.8,34.8 278.1,0 274.8,0 343.8,35.4 317.5,86.7 
			241.7,47.8 202.8,123.6 151.6,97.2 190.4,21.5 148.6,0 145.3,0 188.4,22.1 		"/>
		<polygon fill="#404041" points="941.9,96.1 954.9,102.7 993.8,27 1069.5,65.9 1076.2,52.9 1000.4,14.1 1007.7,0 1005.9,0 
			998.4,14.7 1074.1,53.6 1068.9,63.8 993.1,25 954.2,100.7 944,95.4 982.9,19.7 944.5,0 941.2,0 980.8,20.4 		"/>
		<polygon fill="#404041" points="926.4,101.1 959.9,118.3 998.8,42.5 1074.5,81.4 1091.7,47.9 1016,9.1 1020.6,0 1018.9,0 
			1013.9,9.7 1089.6,48.6 1073.9,79.4 998.1,40.5 959.2,116.2 928.5,100.4 967.4,24.7 919.3,0 915.9,0 965.3,25.3 		"/>
		<polygon fill="#404041" points="1132.3,98.1 1145.3,104.8 1184.1,29.1 1259.9,67.9 1266.5,55 1190.8,16.1 1199.1,0 1197.3,0 
			1188.7,16.8 1264.5,55.6 1259.2,65.9 1183.5,27 1144.6,102.7 1134.3,97.5 1173.2,21.7 1130.9,0 1127.5,0 1171.2,22.4 		"/>
		<polygon fill="#404041" points="1375.8,0 1374.1,0 1368.2,11.5 1345.8,0 1342.5,0 1368.8,13.6 		"/>
		<polygon fill="#404041" points="370.9,89.9 383.9,96.6 422.8,20.9 498.5,59.8 505.1,46.8 429.4,7.9 433.5,0 431.8,0 427.3,8.6 
			503.1,47.5 497.8,57.7 422.1,18.8 383.2,94.5 373,89.3 411.8,13.6 385.5,0 382.1,0 409.8,14.2 		"/>
		<polygon fill="#404041" points="418.8,0 417.1,0 416.4,1.3 414,0 410.7,0 417.1,3.3 		"/>
		<polygon fill="#404041" points="1400,27.8 1381.1,18.1 1390.5,0 1388.7,0 1379.1,18.8 1400,29.6 		"/>
		<polygon fill="#404041" points="355.4,94.9 388.9,112.1 427.7,36.4 503.5,75.3 520.7,41.8 444.9,2.9 446.4,0 444.7,0 442.9,3.6 
			518.6,42.5 502.8,73.2 427.1,34.3 388.2,110.1 357.4,94.3 396.3,18.5 360.2,0 356.9,0 394.3,19.2 		"/>
		<polygon fill="#404041" points="1400,3.3 1394.6,13.8 1400,16.6 1400,14.9 1396.7,13.2 1400,6.7 		"/>
		<polygon fill="#404041" points="545.7,97 579.2,114.2 618.1,38.4 693.8,77.3 711,43.9 635.3,5 637.8,0 636.1,0 633.2,5.6 
			709,44.5 693.2,75.3 617.4,36.4 578.5,112.1 547.8,96.3 586.7,20.6 546.6,0 543.2,0 584.6,21.3 		"/>
		<polygon fill="#404041" points="561.3,92 574.2,98.6 613.1,22.9 688.8,61.8 695.5,48.8 619.8,10 624.9,0 623.1,0 617.7,10.6 
			693.4,49.5 688.2,59.7 612.4,20.9 573.5,96.6 563.3,91.3 602.2,15.6 571.8,0 568.5,0 600.1,16.3 		"/>
		<polygon fill="#404041" points="1101.2,108.1 1155.2,135.8 1194.1,60.1 1269.9,99 1297.6,45 1221.9,6.1 1225,0 1223.3,0 
			1219.8,6.8 1295.5,45.7 1269.2,97 1193.5,58.1 1154.6,133.8 1103.3,107.5 1142.2,31.7 1080.4,0 1077,0 1140.1,32.4 		"/>
		<polygon fill="#404041" points="610.2,0 608.5,0 606.8,3.3 600.4,0 597,0 607.5,5.4 		"/>
		<polygon fill="#404041" points="339.8,99.9 393.8,127.7 432.7,51.9 508.5,90.8 536.2,36.8 464.5,0 461.2,0 534.1,37.5 507.8,88.8 
			432.1,49.9 393.2,125.6 341.9,99.3 380.8,23.5 335,0 331.6,0 378.7,24.2 		"/>
		<polygon fill="#404041" points="1286.3,543.6 1279.7,556.6 1355.4,595.5 1316.5,671.2 1329.5,677.9 1368.3,602.1 1400,618.4 
			1400,616.7 1367.7,600.1 1328.8,675.8 1318.6,670.6 1357.4,594.8 1281.7,555.9 1287,545.7 1362.7,584.6 1400,511.9 1400,508.6 
			1362,582.5 		"/>
		<polygon fill="#404041" points="1400,220.9 1400,219.2 1379.1,208.5 1400,167.8 1400,164.4 1377,209.2 		"/>
		<polygon fill="#404041" points="1400,376 1390.5,394.5 1400,399.4 1400,397.7 1392.6,393.8 1400,379.4 		"/>
		<polygon fill="#404041" points="1352.1,551.5 1276.3,512.6 1248.6,566.6 1324.3,605.5 1285.4,681.2 1339.4,708.9 1378.3,633.2 
			1400,644.3 1400,642.6 1377.7,631.1 1338.8,706.9 1287.5,680.5 1326.4,604.8 1250.7,565.9 1277,514.6 1352.7,553.5 1391.6,477.8 
			1400,482.1 1400,480.4 1390.9,475.7 		"/>
		<polygon fill="#404041" points="1400,562.4 1388.5,584.9 1400,590.8 1400,589.1 1390.5,584.2 1400,565.7 		"/>
		<path fill="#404041" d="M436.7,764.3l38.9-75.7l-33.5-17.2l-38.9,75.7l-75.7-38.9l-17.2,33.5l75.7,38.9l-38.9,75.7l33.5,17.2
			l38.9-75.7l75.7,38.9l17.2-33.5L436.7,764.3z M494.6,834.6l-75.7-38.9L380,871.5l-30.8-15.8l38.9-75.7L312.4,741l15.8-30.8
			l75.7,38.9l38.9-75.7l30.8,15.8L434.7,765l75.7,38.9L494.6,834.6z"/>
		<polygon fill="#404041" points="1400,603.7 1400,602 1375,589.2 1400,540.5 1400,537.2 1372.9,589.8 		"/>
		<polygon fill="#404041" points="1354.1,361.1 1278.4,322.2 1250.6,376.2 1326.4,415.1 1287.5,490.9 1341.5,518.6 1380.4,442.9 
			1400,452.9 1400,451.2 1379.7,440.8 1340.8,516.5 1289.5,490.2 1328.4,414.5 1252.7,375.6 1279,324.3 1354.8,363.2 1393.7,287.5 
			1400,290.7 1400,289 1393,285.4 		"/>
		<polygon fill="#404041" points="47.9,428.5 123.7,467.4 151.4,413.4 75.7,374.5 114.6,298.8 60.6,271.1 21.7,346.8 0,335.7 
			0,337.4 22.3,348.8 61.2,273.1 112.5,299.5 73.6,375.2 149.3,414.1 123,465.4 47.3,426.5 8.4,502.2 0,497.9 0,499.6 9.1,504.3 		
			"/>
		<polygon fill="#404041" points="1400,412.3 1400,410.6 1377,398.8 1400,354.1 1400,350.8 1375,399.5 		"/>
		<polygon fill="#404041" points="1288.4,353.3 1281.7,366.3 1357.4,405.1 1318.5,480.9 1331.5,487.5 1370.4,411.8 1400,427 
			1400,425.3 1369.7,409.7 1330.8,485.5 1320.6,480.2 1359.5,404.5 1283.8,365.6 1289,355.4 1364.7,394.2 1400,325.6 1400,322.2 
			1364.1,392.2 		"/>
		<polygon fill="#404041" points="1359.1,376.7 1283.4,337.8 1266.2,371.2 1341.9,410.1 1303,485.9 1336.5,503.1 1375.4,427.3 
			1400,440 1400,438.3 1374.7,425.3 1335.8,501 1305.1,485.2 1344,409.5 1268.2,370.6 1284,339.8 1359.8,378.7 1398.6,303 
			1400,303.7 1400,302 1398,300.9 		"/>
		<polygon fill="#404041" points="1357,567 1281.3,528.1 1264.1,561.6 1339.9,600.5 1301,676.2 1334.4,693.4 1373.3,617.7 
			1400,631.4 1400,629.7 1372.7,615.6 1333.8,691.3 1303,675.6 1341.9,599.8 1266.2,560.9 1282,530.2 1357.7,569.1 1396.6,493.3 
			1400,495.1 1400,493.4 1395.9,491.3 		"/>
		<polygon fill="#404041" points="1399.9,960.6 1400,960.6 1400,960.4 		"/>
		<polygon fill="#404041" points="1352.9,947.7 1277.2,908.8 1260,942.3 1333.5,980 1336.8,980 1262.1,941.6 1277.9,910.9 
			1353.6,949.8 1392.5,874 1400,877.9 1400,876.2 1391.8,872 		"/>
		<polygon fill="#404041" points="1357.9,963.2 1282.2,924.3 1275.6,937.3 1351.3,976.2 1349.3,980 1351,980 1353.3,975.5 
			1277.6,936.6 1282.9,926.4 1358.6,965.3 1397.5,889.6 1400,890.8 1400,889.1 1396.8,887.5 		"/>
		<polygon fill="#404041" points="1400,938.5 1400,935.1 1384.4,965.5 1400,973.6 1400,971.9 1386.4,964.9 		"/>
		<polygon fill="#404041" points="1370.9,969.9 1400,913.2 1400,909.9 1368.8,970.5 1387.3,980 1390.6,980 		"/>
		<polygon fill="#404041" points="1348,932.2 1272.2,893.3 1244.5,947.3 1308.2,980 1311.6,980 1246.6,946.6 1272.9,895.3 
			1348.6,934.2 1387.5,858.5 1400,864.9 1400,863.2 1386.8,856.4 		"/>
		<polygon fill="#404041" points="1355,757.4 1279.3,718.5 1262.1,751.9 1337.8,790.8 1298.9,866.6 1332.4,883.8 1371.3,808 
			1400,822.8 1400,821.1 1370.6,806 1331.7,881.7 1301,865.9 1339.9,790.2 1264.1,751.3 1279.9,720.5 1355.7,759.4 1394.5,683.7 
			1400,686.5 1400,684.8 1393.9,681.6 		"/>
		<polygon fill="#404041" points="1360,772.9 1284.3,734 1277.6,747 1353.3,785.8 1314.4,861.6 1327.4,868.2 1366.3,792.5 
			1400,809.8 1400,808.1 1365.6,790.4 1326.7,866.2 1316.5,860.9 1355.4,785.2 1279.7,746.3 1284.9,736 1360.7,774.9 1399.5,699.2 
			1400,699.4 1400,697.7 1398.9,697.2 		"/>
		<polygon fill="#404041" points="1400,748.8 1386.4,775.2 1400,782.2 1400,780.5 1388.5,774.5 1400,752.1 		"/>
		<polygon fill="#404041" points="1400,795.1 1400,793.4 1372.9,779.5 1400,726.9 1400,723.5 1370.9,780.2 		"/>
		<polygon fill="#404041" points="1350,741.8 1274.3,702.9 1246.5,756.9 1322.3,795.8 1283.4,871.6 1337.4,899.3 1376.3,823.6 
			1400,835.7 1400,834 1375.6,821.5 1336.7,897.2 1285.4,870.9 1324.3,795.2 1248.6,756.3 1274.9,705 1350.7,743.9 1389.6,668.1 
			1400,673.5 1400,671.8 1388.9,666.1 		"/>
		<polygon fill="#404041" points="1400,189.7 1392.6,204.2 1400,208 1400,206.3 1394.6,203.5 1400,193 		"/>
		<polygon fill="#404041" points="111.6,626.7 118.3,613.7 42.6,574.9 81.5,499.1 68.5,492.5 29.6,568.2 0,553 0,554.7 30.3,570.3 
			69.2,494.5 79.4,499.8 40.5,575.5 116.2,614.4 111,624.6 35.3,585.8 0,654.4 0,657.8 35.9,587.8 		"/>
		<polygon fill="#404041" points="40.9,603.3 116.6,642.2 133.8,608.8 58.1,569.9 97,494.1 63.5,476.9 24.6,552.7 0,540 0,541.7 
			25.3,554.7 64.2,479 94.9,494.8 56,570.5 131.8,609.4 116,640.2 40.2,601.3 1.4,677 0,676.3 0,678 2,679.1 		"/>
		<polygon fill="#404041" points="0,567.7 0,569.4 23,581.2 0,625.9 0,629.2 25,580.5 		"/>
		<polygon fill="#404041" points="114.6,832.6 131.8,799.1 56.1,760.2 94.9,684.5 61.5,667.3 22.6,743 0,731.4 0,733.1 23.2,745.1 
			62.1,669.3 92.9,685.1 54,760.9 129.7,799.8 113.9,830.5 38.2,791.6 0,866 0,869.4 38.9,793.7 		"/>
		<polygon fill="#404041" points="43.9,809.2 119.6,848.1 147.3,794.1 71.6,755.2 110.5,679.5 56.5,651.8 17.6,727.5 0,718.5 
			0,720.2 18.2,729.5 57.1,653.8 108.4,680.2 69.5,755.9 145.3,794.8 118.9,846.1 43.2,807.2 4.3,882.9 0,880.7 0,882.4 5,884.9 		
			"/>
		<polygon fill="#404041" points="0,604 9.5,585.5 0,580.6 0,582.3 7.4,586.1 0,600.6 		"/>
		<polygon fill="#404041" points="113.7,436.4 120.3,423.4 44.6,384.5 83.5,308.8 70.5,302.1 31.7,377.9 0,361.6 0,363.3 
			32.3,379.9 71.2,304.2 81.5,309.4 42.6,385.2 118.3,424.1 113,434.3 37.3,395.4 0,468.1 0,471.4 38,397.5 		"/>
		<polygon fill="#404041" points="43,413 118.7,451.9 135.9,418.4 60.1,379.5 99,303.8 65.6,286.6 26.7,362.3 0,348.6 0,350.3 
			27.3,364.4 66.2,288.7 97,304.4 58.1,380.2 133.8,419.1 118,449.8 42.3,410.9 3.4,486.7 0,484.9 0,486.6 4.1,488.7 		"/>
		<polygon fill="#404041" points="0,417.6 11.5,395.1 0,389.2 0,390.9 9.5,395.8 0,414.3 		"/>
		<polygon fill="#404041" points="45.9,618.9 121.6,657.8 149.4,603.8 73.6,564.9 112.5,489.1 58.5,461.4 19.6,537.1 0,527.1 
			0,528.8 20.3,539.2 59.2,463.5 110.5,489.8 71.6,565.5 147.3,604.4 121,655.7 45.2,616.8 6.3,692.5 0,689.3 0,691 7,694.6 		"/>
		<polygon fill="#404041" points="0,376.3 0,378 25,390.8 0,439.5 0,442.8 27.1,390.1 		"/>
		<polygon fill="#404041" points="1285.4,147.4 1268.2,180.9 1343.9,219.8 1305.1,295.5 1338.5,312.7 1377.4,237 1400,248.6 
			1400,246.9 1376.8,234.9 1337.9,310.7 1307.1,294.9 1346,219.1 1270.3,180.2 1286.1,149.5 1361.8,188.4 1400,114 1400,110.6 
			1361.1,186.3 		"/>
		<polygon fill="#404041" points="24.2,980 25.9,980 31.8,968.5 54.2,980 57.5,980 31.2,966.4 		"/>
		<polygon fill="#404041" points="0,952.2 18.9,961.8 9.5,980 11.3,980 20.9,961.2 0,950.4 		"/>
		<polygon fill="#404041" points="0,976.7 5.4,966.2 0,963.4 0,965.1 3.3,966.8 0,973.3 		"/>
		<polygon fill="#404041" points="1290.4,163 1283.7,175.9 1359.5,214.8 1320.6,290.5 1333.5,297.2 1372.4,221.5 1400,235.6 
			1400,233.9 1371.8,219.4 1332.9,295.1 1322.6,289.9 1361.5,214.1 1285.8,175.2 1291.1,165 1366.8,203.9 1400,139.2 1400,135.9 
			1366.1,201.8 		"/>
		<polygon fill="#404041" points="1356.1,170.8 1280.4,131.9 1252.7,185.9 1328.4,224.8 1289.5,300.5 1343.5,328.2 1382.4,252.5 
			1400,261.5 1400,259.8 1381.8,250.5 1342.9,326.2 1291.6,299.8 1330.5,224.1 1254.7,185.2 1281.1,133.9 1356.8,172.8 1395.7,97.1 
			1400,99.3 1400,97.6 1395,95.1 		"/>
		<polygon fill="#404041" points="109.6,817 116.3,804.1 40.5,765.2 79.4,689.5 66.5,682.8 27.6,758.5 0,744.4 0,746.1 28.2,760.6 
			67.1,684.9 77.4,690.1 38.5,765.9 114.2,804.7 108.9,815 33.2,776.1 0,840.8 0,844.1 33.9,778.2 		"/>
		<polygon fill="#404041" points="77.4,879.8 64.4,873.2 25.5,948.9 0,935.8 0,937.5 26.2,951 65.1,875.2 75.3,880.5 36.4,956.2 
			82.8,980 86.1,980 38.5,955.5 		"/>
		<polygon fill="#404041" points="0,790.3 7.4,775.8 0,772 0,773.7 5.4,776.5 0,787 		"/>
		<polygon fill="#404041" points="0,759.1 0,760.8 20.9,771.5 0,812.2 0,815.6 23,770.8 		"/>
		<polygon fill="#404041" points="108.4,869.8 54.4,842.1 15.5,917.8 0,909.9 0,911.6 16.2,919.9 55.1,844.2 106.4,870.5 
			67.5,946.2 133.3,980 136.6,980 69.5,945.6 		"/>
		<polygon fill="#404041" points="92.9,874.8 59.4,857.6 20.5,933.4 0,922.8 0,924.5 21.2,935.4 60.1,859.7 90.8,875.5 51.9,951.2 
			108,980 111.3,980 54,950.6 		"/>
		<polygon fill="#404041" points="267.7,881.9 254.8,875.2 215.9,950.9 140.1,912.1 133.5,925 209.2,963.9 200.9,980 202.7,980 
			211.3,963.2 135.5,924.4 140.8,914.1 216.5,953 255.4,877.3 265.7,882.5 226.8,958.3 269.1,980 272.5,980 228.8,957.6 		"/>
		<path fill="#404041" d="M235,386.6l38.9-75.7l-13-6.7L222,379.9L146.3,341l-6.7,13l75.7,38.9l-38.9,75.7l13,6.7l38.9-75.7
			l75.7,38.9l6.7-13L235,386.6z M303.4,436.3l-75.7-38.9l-38.9,75.7l-10.2-5.3l38.9-75.7l-75.7-38.9l5.3-10.2l75.7,38.9l38.9-75.7
			l10.2,5.3l-38.9,75.7l75.7,38.9L303.4,436.3z"/>
		<path fill="#404041" d="M833,763.4l38.9-75.7l-54-27.7L779,735.7l-75.7-38.9l-27.7,54l75.7,38.9l-38.9,75.7l54,27.7l38.9-75.7
			l75.7,38.9l27.7-54L833,763.4z M880.3,854.2l-75.7-38.9l-38.9,75.7l-51.3-26.3l38.9-75.7l-75.7-38.9l26.3-51.3l75.7,38.9
			l38.9-75.7l51.3,26.3l-38.9,75.7l75.7,38.9L880.3,854.2z"/>
		<path fill="#404041" d="M250.5,381.6l38.9-75.7l-33.5-17.2L217,364.4l-75.7-38.9L124.1,359l75.7,38.9l-38.9,75.7l33.5,17.2
			l38.9-75.7l75.7,38.9l17.2-33.5L250.5,381.6z M308.4,451.9L232.6,413l-38.9,75.7L163,472.9l38.9-75.7l-75.7-38.9l15.8-30.8
			l75.7,38.9l38.9-75.7l30.8,15.8l-38.9,75.7l75.7,38.9L308.4,451.9z"/>
		<path fill="#404041" d="M992.3,775.4l38.9-75.7l-13-6.7l-38.9,75.7l-75.7-38.9l-6.7,13l75.7,38.9l-38.9,75.7l13,6.7l38.9-75.7
			l75.7,38.9l6.7-13L992.3,775.4z M1060.7,825.2l-75.7-38.9l-38.9,75.7l-10.2-5.3l38.9-75.7L899,742.2l5.3-10.2l75.7,38.9l38.9-75.7
			l10.2,5.3l-38.9,75.7l75.7,38.9L1060.7,825.2z"/>
		<path fill="#404041" d="M817.4,768.4l38.9-75.7l-33.5-17.2L784,751.2l-75.7-38.9L691,745.8l75.7,38.9l-38.9,75.7l33.5,17.2
			l38.9-75.7l75.7,38.9l17.2-33.5L817.4,768.4z M875.3,838.7l-75.7-38.9l-38.9,75.7l-30.8-15.8l38.9-75.7l-75.7-38.9l15.8-30.8
			l75.7,38.9l38.9-75.7l30.8,15.8l-38.9,75.7l75.7,38.9L875.3,838.7z"/>
		<path fill="#404041" d="M1163,783.8l-38.9,75.7l13,6.7l38.9-75.7l75.7,38.9l6.7-13l-75.7-38.9l38.9-75.7l-13-6.7l-38.9,75.7
			l-75.7-38.9l-6.7,13L1163,783.8z M1094.6,734l75.7,38.9l38.9-75.7l10.2,5.3l-38.9,75.7l75.7,38.9l-5.3,10.2l-75.7-38.9l-38.9,75.7
			l-10.2-5.3l38.9-75.7l-75.7-38.9L1094.6,734z"/>
		<path fill="#404041" d="M801.9,773.4l38.9-75.7l-13-6.7l-38.9,75.7l-75.7-38.9l-6.7,13l75.7,38.9l-38.9,75.7l13,6.7l38.9-75.7
			l75.7,38.9l6.7-13L801.9,773.4z M870.3,823.2l-75.7-38.9L755.7,860l-10.2-5.3l38.9-75.7l-75.7-38.9l5.3-10.2l75.7,38.9l38.9-75.7
			l10.2,5.3l-38.9,75.7l75.7,38.9L870.3,823.2z"/>
		<path fill="#404041" d="M230.9,767.2l38.9-75.7l-13-6.7l-38.9,75.7l-75.7-38.9l-6.7,13l75.7,38.9l-38.9,75.7l13,6.7l38.9-75.7
			l75.7,38.9l6.7-13L230.9,767.2z M299.3,817l-75.7-38.9l-38.9,75.7l-10.2-5.3l38.9-75.7L137.6,734l5.3-10.2l75.7,38.9l38.9-75.7
			l10.2,5.3l-38.9,75.7l75.7,38.9L299.3,817z"/>
		<path fill="#404041" d="M252.5,191.2l38.9-75.7l-33.5-17.2L219.1,174l-75.7-38.9l-17.2,33.5l75.7,38.9L163,283.2l33.5,17.2
			l38.9-75.7l75.7,38.9l17.2-33.5L252.5,191.2z M310.4,261.5l-75.7-38.9l-38.9,75.7L165,282.6l38.9-75.7L128.2,168l15.8-30.8
			l75.7,38.9l38.9-75.7l30.8,15.8l-38.9,75.7l75.7,38.9L310.4,261.5z"/>
		<path fill="#404041" d="M316.1,279.1l27.7-54l-75.7-38.9l38.9-75.7l-54-27.7l-38.9,75.7l-75.7-38.9l-27.7,54l75.7,38.9l-38.9,75.7
			l54,27.7l38.9-75.7L316.1,279.1z M200.8,313.9l-51.3-26.3l38.9-75.7l-75.7-38.9l26.3-51.3l75.7,38.9l38.9-75.7l51.3,26.3
			L266,186.9l75.7,38.9l-26.3,51.3l-75.7-38.9L200.8,313.9z"/>
		<path fill="#404041" d="M1023.3,765.5l38.9-75.7l-54-27.7l-38.9,75.7l-75.7-38.9l-27.7,54l75.7,38.9l-38.9,75.7l54,27.7l38.9-75.7
			l75.7,38.9l27.7-54L1023.3,765.5z M1070.7,856.3l-75.7-38.9L956,893.1l-51.3-26.3l38.9-75.7l-75.7-38.9l26.3-51.3l75.7,38.9
			l38.9-75.7l51.3,26.3l-38.9,75.7L1097,805L1070.7,856.3z"/>
		<path fill="#404041" d="M314,469.5l27.7-54L266,376.6l38.9-75.7l-54-27.7L212,348.8L136.3,310l-27.7,54l75.7,38.9l-38.9,75.7
			l54,27.7l38.9-75.7L314,469.5z M198.7,504.2l-51.3-26.3l38.9-75.7l-75.7-38.9L137,312l75.7,38.9l38.9-75.7l51.3,26.3L264,377.2
			l75.7,38.9l-26.3,51.3l-75.7-38.9L198.7,504.2z"/>
		<path fill="#404041" d="M388.1,590.2L349.2,666l33.5,17.2l38.9-75.7l75.7,38.9l17.2-33.5L438.8,574l38.9-75.7L444.2,481
			l-38.9,75.7l-75.7-38.9l-17.2,33.5L388.1,590.2z M330.2,519.9l75.7,38.9l38.9-75.7l30.8,15.8l-38.9,75.7l75.7,38.9l-15.8,30.8
			l-75.7-38.9l-38.9,75.7l-30.8-15.8l38.9-75.7l-75.7-38.9L330.2,519.9z"/>
		<path fill="#404041" d="M372.6,595.2L333.7,671l54,27.7l38.9-75.7l75.7,38.9l27.7-54L454.3,569l38.9-75.7l-54-27.7l-38.9,75.7
			l-75.7-38.9l-27.7,54L372.6,595.2z M325.3,504.4l75.7,38.9l38.9-75.7l51.3,26.3l-38.9,75.7l75.7,38.9l-26.3,51.3l-75.7-38.9
			L387,696.6l-51.3-26.3l38.9-75.7l-75.7-38.9L325.3,504.4z"/>
		<path fill="#404041" d="M312,659.8l27.7-54L264,566.9l38.9-75.7l-54-27.7L210,539.2l-75.7-38.9l-27.7,54l75.7,38.9l-38.9,75.7
			l54,27.7l38.9-75.7L312,659.8z M196.7,694.6l-51.3-26.3l38.9-75.7l-75.7-38.9l26.3-51.3l75.7,38.9l38.9-75.7l51.3,26.3l-38.9,75.7
			l75.7,38.9l-26.3,51.3l-75.7-38.9L196.7,694.6z"/>
		<path fill="#404041" d="M326.6,312l-27.7,54l75.7,38.9l-38.9,75.7l54,27.7l38.9-75.7l75.7,38.9l27.7-54l-75.7-38.9l38.9-75.7
			l-54-27.7l-38.9,75.7L326.6,312z M441.9,277.2l51.3,26.3l-38.9,75.7l75.7,38.9l-26.3,51.3L428,430.6l-38.9,75.7L337.8,480
			l38.9-75.7L301,365.3l26.3-51.3l75.7,38.9L441.9,277.2z"/>
		<path fill="#404041" d="M403.6,585.3L364.8,661l13,6.7l38.9-75.7l75.7,38.9l6.7-13l-75.7-38.9l38.9-75.7l-13-6.7l-38.9,75.7
			l-75.7-38.9l-6.7,13L403.6,585.3z M335.2,535.5l75.7,38.9l38.9-75.7l10.2,5.3l-38.9,75.7l75.7,38.9l-5.3,10.2l-75.7-38.9
			l-38.9,75.7l-10.2-5.3l38.9-75.7L330,545.7L335.2,535.5z"/>
		<path fill="#404041" d="M642.6,761.4l38.9-75.7l-54-27.7l-38.9,75.7l-75.7-38.9l-27.7,54l75.7,38.9L522,863.4l54,27.7l38.9-75.7
			l75.7,38.9l27.7-54L642.6,761.4z M690,852.2l-75.7-38.9L575.3,889l-51.3-26.3l38.9-75.7l-75.7-38.9l26.3-51.3l75.7,38.9l38.9-75.7
			l51.3,26.3L640.6,762l75.7,38.9L690,852.2z"/>
		<path fill="#404041" d="M1147.5,788.8l-38.9,75.7l33.5,17.2l38.9-75.7l75.7,38.9l17.2-33.5l-75.7-38.9l38.9-75.7l-33.5-17.2
			l-38.9,75.7l-75.7-38.9l-17.2,33.5L1147.5,788.8z M1089.6,718.5l75.7,38.9l38.9-75.7l30.8,15.8l-38.9,75.7l75.7,38.9l-15.8,30.8
			l-75.7-38.9l-38.9,75.7l-30.8-15.8l38.9-75.7l-75.7-38.9L1089.6,718.5z"/>
		<path fill="#404041" d="M627.1,766.4l38.9-75.7l-33.5-17.2l-38.9,75.7l-75.7-38.9l-17.2,33.5l75.7,38.9l-38.9,75.7l33.5,17.2
			l38.9-75.7l75.7,38.9l17.2-33.5L627.1,766.4z M685,836.7l-75.7-38.9l-38.9,75.7l-30.8-15.8l38.9-75.7l-75.7-38.9l15.8-30.8
			l75.7,38.9l38.9-75.7l30.8,15.8L625,767l75.7,38.9L685,836.7z"/>
		<path fill="#404041" d="M611.6,771.3l38.9-75.7l-13-6.7l-38.9,75.7l-75.7-38.9l-6.7,13l75.7,38.9l-38.9,75.7l13,6.7l38.9-75.7
			l75.7,38.9l6.7-13L611.6,771.3z M680,821.1l-75.7-38.9L565.4,858l-10.2-5.3L594,777l-75.7-38.9l5.3-10.2l75.7,38.9l38.9-75.7
			l10.2,5.3L609.5,772l75.7,38.9L680,821.1z"/>
		<path fill="#404041" d="M232.9,576.9l38.9-75.7l-13-6.7L220,570.2l-75.7-38.9l-6.7,13l75.7,38.9l-38.9,75.7l13,6.7l38.9-75.7
			l75.7,38.9l6.7-13L232.9,576.9z M301.3,626.7l-75.7-38.9l-38.9,75.7l-10.2-5.3l38.9-75.7l-75.7-38.9l5.3-10.2l75.7,38.9l38.9-75.7
			l10.2,5.3l-38.9,75.7l75.7,38.9L301.3,626.7z"/>
		<path fill="#404041" d="M248.4,571.9l38.9-75.7L253.9,479L215,554.7l-75.7-38.9L122,549.3l75.7,38.9l-38.9,75.7l33.5,17.2
			l38.9-75.7l75.7,38.9l17.2-33.5L248.4,571.9z M306.3,642.2l-75.7-38.9l-38.9,75.7l-30.8-15.8l38.9-75.7l-75.7-38.9l15.8-30.8
			l75.7,38.9l38.9-75.7l30.8,15.8l-38.9,75.7l75.7,38.9L306.3,642.2z"/>
		<path fill="#404041" d="M1007.8,770.4l38.9-75.7l-33.5-17.2l-38.9,75.7l-75.7-38.9l-17.2,33.5l75.7,38.9l-38.9,75.7l33.5,17.2
			l38.9-75.7l75.7,38.9l17.2-33.5L1007.8,770.4z M1065.7,840.8l-75.7-38.9L951,877.6l-30.8-15.8l38.9-75.7l-75.7-38.9l15.8-30.8
			l75.7,38.9l38.9-75.7l30.8,15.8l-38.9,75.7l75.7,38.9L1065.7,840.8z"/>
		<path fill="#404041" d="M582.6,211.6l-38.9,75.7l33.5,17.2l38.9-75.7l75.7,38.9l17.2-33.5l-75.7-38.9l38.9-75.7l-33.5-17.2
			l-38.9,75.7L524,139.2l-17.2,33.5L582.6,211.6z M524.7,141.3l75.7,38.9l38.9-75.7l30.8,15.8L631.2,196l75.7,38.9l-15.8,30.8
			l-75.7-38.9l-38.9,75.7l-30.8-15.8l38.9-75.7l-75.7-38.9L524.7,141.3z"/>
		<path fill="#404041" d="M1083.9,700.9l-27.7,54l75.7,38.9l-38.9,75.7l54,27.7l38.9-75.7l75.7,38.9l27.7-54l-75.7-38.9l38.9-75.7
			l-54-27.7l-38.9,75.7L1083.9,700.9z M1199.2,666.1l51.3,26.3l-38.9,75.7l75.7,38.9l-26.3,51.3l-75.7-38.9l-38.9,75.7l-51.3-26.3
			l38.9-75.7l-75.7-38.9l26.3-51.3l75.7,38.9L1199.2,666.1z"/>
		<path fill="#404041" d="M1153.6,217.7l-38.9,75.7l33.5,17.2l38.9-75.7l75.7,38.9l17.2-33.5l-75.7-38.9l38.9-75.7l-33.5-17.2
			l-38.9,75.7l-75.7-38.9l-17.2,33.5L1153.6,217.7z M1095.7,147.4l75.7,38.9l38.9-75.7l30.8,15.8l-38.9,75.7l75.7,38.9l-15.8,30.8
			l-75.7-38.9l-38.9,75.7l-30.8-15.8l38.9-75.7l-75.7-38.9L1095.7,147.4z"/>
		<path fill="#404041" d="M567,216.6l-38.9,75.7l54,27.7l38.9-75.7l75.7,38.9l27.7-54l-75.7-38.9l38.9-75.7l-54-27.7l-38.9,75.7
			L519,123.7l-27.7,54L567,216.6z M519.7,125.8l75.7,38.9l38.9-75.7l51.3,26.3L646.7,191l75.7,38.9l-26.3,51.3l-75.7-38.9L581.5,318
			l-51.3-26.3l38.9-75.7L493.4,177L519.7,125.8z"/>
		<path fill="#404041" d="M598.1,206.6l-38.9,75.7l13,6.7l38.9-75.7l75.7,38.9l6.7-13l-75.7-38.9l38.9-75.7l-13-6.7l-38.9,75.7
			L529,154.8l-6.7,13L598.1,206.6z M529.7,156.8l75.7,38.9l38.9-75.7l10.2,5.3L615.6,201l75.7,38.9l-5.3,10.2l-75.7-38.9l-38.9,75.7
			l-10.2-5.3l38.9-75.7l-75.7-38.9L529.7,156.8z"/>
		<path fill="#404041" d="M963.3,215.7l-38.9,75.7l33.5,17.2l38.9-75.7l75.7,38.9l17.2-33.5l-75.7-38.9l38.9-75.7l-33.5-17.2
			l-38.9,75.7l-75.7-38.9l-17.2,33.5L963.3,215.7z M905.4,145.4l75.7,38.9l38.9-75.7l30.8,15.8l-38.9,75.7l75.7,38.9l-15.8,30.8
			l-75.7-38.9l-38.9,75.7l-30.8-15.8l38.9-75.7l-75.7-38.9L905.4,145.4z"/>
		<path fill="#404041" d="M978.8,210.7l-38.9,75.7l13,6.7l38.9-75.7l75.7,38.9l6.7-13l-75.7-38.9l38.9-75.7l-13-6.7l-38.9,75.7
			l-75.7-38.9l-6.7,13L978.8,210.7z M910.4,160.9l75.7,38.9l38.9-75.7l10.2,5.3l-38.9,75.7l75.7,38.9l-5.3,10.2l-75.7-38.9
			L952.2,291l-10.2-5.3l38.9-75.7l-75.7-38.9L910.4,160.9z"/>
		<path fill="#404041" d="M757.4,218.6l-38.9,75.7l54,27.7l38.9-75.7l75.7,38.9l27.7-54l-75.7-38.9l38.9-75.7l-54-27.7l-38.9,75.7
			l-75.7-38.9l-27.7,54L757.4,218.6z M710,127.8l75.7,38.9L824.7,91l51.3,26.3L837.1,193l75.7,38.9l-26.3,51.3l-75.7-38.9L771.8,320
			l-51.3-26.3l38.9-75.7l-75.7-38.9L710,127.8z"/>
		<path fill="#404041" d="M788.4,208.7l-38.9,75.7l13,6.7l38.9-75.7l75.7,38.9l6.7-13l-75.7-38.9l38.9-75.7l-13-6.7l-38.9,75.7
			l-75.7-38.9l-6.7,13L788.4,208.7z M720,158.9l75.7,38.9l38.9-75.7l10.2,5.3L806,203l75.7,38.9l-5.3,10.2l-75.7-38.9L761.8,289
			l-10.2-5.3l38.9-75.7l-75.7-38.9L720,158.9z"/>
		<path fill="#404041" d="M1169.1,212.8l-38.9,75.7l13,6.7l38.9-75.7l75.7,38.9l6.7-13l-75.7-38.9l38.9-75.7l-13-6.7l-38.9,75.7
			l-75.7-38.9l-6.7,13L1169.1,212.8z M1100.7,163l75.7,38.9l38.9-75.7l10.2,5.3l-38.9,75.7l75.7,38.9l-5.3,10.2l-75.7-38.9
			l-38.9,75.7l-10.2-5.3l38.9-75.7l-75.7-38.9L1100.7,163z"/>
		<path fill="#404041" d="M947.7,220.7l-38.9,75.7l54,27.7l38.9-75.7l75.7,38.9l27.7-54l-75.7-38.9l38.9-75.7l-54-27.7l-38.9,75.7
			l-75.7-38.9l-27.7,54L947.7,220.7z M900.4,129.9l75.7,38.9L1015,93l51.3,26.3l-38.9,75.7l75.7,38.9l-26.3,51.3l-75.7-38.9
			l-38.9,75.7l-51.3-26.3l38.9-75.7l-75.7-38.9L900.4,129.9z"/>
		<path fill="#404041" d="M1138.1,222.7l-38.9,75.7l54,27.7l38.9-75.7l75.7,38.9l27.7-54l-75.7-38.9l38.9-75.7l-54-27.7l-38.9,75.7
			l-75.7-38.9l-27.7,54L1138.1,222.7z M1090.7,131.9l75.7,38.9l38.9-75.7l51.3,26.3l-38.9,75.7l75.7,38.9l-26.3,51.3l-75.7-38.9
			l-38.9,75.7l-51.3-26.3l38.9-75.7l-75.7-38.9L1090.7,131.9z"/>
		<path fill="#404041" d="M1086,510.5l-27.7,54l75.7,38.9l-38.9,75.7l54,27.7l38.9-75.7l75.7,38.9l27.7-54l-75.7-38.9l38.9-75.7
			l-54-27.7l-38.9,75.7L1086,510.5z M1201.3,475.8l51.3,26.3l-38.9,75.7l75.7,38.9L1263,668l-75.7-38.9l-38.9,75.7l-51.3-26.3
			l38.9-75.7l-75.7-38.9l26.3-51.3l75.7,38.9L1201.3,475.8z"/>
		<path fill="#404041" d="M1149.5,598.4l-38.9,75.7l33.5,17.2l38.9-75.7l75.7,38.9l17.2-33.5l-75.7-38.9l38.9-75.7l-33.5-17.2
			l-38.9,75.7l-75.7-38.9l-17.2,33.5L1149.5,598.4z M1091.6,528.1l75.7,38.9l38.9-75.7l30.8,15.8l-38.9,75.7l75.7,38.9l-15.8,30.8
			l-75.7-38.9l-38.9,75.7l-30.8-15.8l38.9-75.7l-75.7-38.9L1091.6,528.1z"/>
		<path fill="#404041" d="M376.7,214.5l-38.9,75.7l54,27.7l38.9-75.7l75.7,38.9l27.7-54l-75.7-38.9l38.9-75.7l-54-27.7l-38.9,75.7
			l-75.7-38.9l-27.7,54L376.7,214.5z M329.3,123.7l75.7,38.9L444,86.9l51.3,26.3l-38.9,75.7l75.7,38.9l-26.3,51.3L430,240.2
			l-38.9,75.7l-51.3-26.3l38.9-75.7L303,175L329.3,123.7z"/>
		<path fill="#404041" d="M237,196.2l38.9-75.7l-13-6.7l-38.9,75.7l-75.7-38.9l-6.7,13l75.7,38.9l-38.9,75.7l13,6.7l38.9-75.7
			l75.7,38.9l6.7-13L237,196.2z M305.4,246l-75.7-38.9l-38.9,75.7l-10.2-5.3l38.9-75.7L143.7,163l5.3-10.2l75.7,38.9l38.9-75.7
			l10.2,5.3L235,196.9l75.7,38.9L305.4,246z"/>
		<path fill="#404041" d="M1165,593.4l-38.9,75.7l13,6.7l38.9-75.7l75.7,38.9l6.7-13l-75.7-38.9l38.9-75.7l-13-6.7l-38.9,75.7
			l-75.7-38.9l-6.7,13L1165,593.4z M1096.6,543.7l75.7,38.9l38.9-75.7l10.2,5.3l-38.9,75.7l75.7,38.9l-5.3,10.2l-75.7-38.9
			l-38.9,75.7l-10.2-5.3l38.9-75.7l-75.7-38.9L1096.6,543.7z"/>
		<path fill="#404041" d="M392.2,209.6l-38.9,75.7l33.5,17.2l38.9-75.7l75.7,38.9l17.2-33.5l-75.7-38.9l38.9-75.7l-33.5-17.2
			l-38.9,75.7l-75.7-38.9l-17.2,33.5L392.2,209.6z M334.3,139.2l75.7,38.9l38.9-75.7l30.8,15.8l-38.9,75.7l75.7,38.9l-15.8,30.8
			L425,224.7l-38.9,75.7l-30.8-15.8l38.9-75.7L318.5,170L334.3,139.2z"/>
		<path fill="#404041" d="M407.7,204.6l-38.9,75.7l13,6.7l38.9-75.7l75.7,38.9l6.7-13l-75.7-38.9l38.9-75.7l-13-6.7l-38.9,75.7
			l-75.7-38.9l-6.7,13L407.7,204.6z M339.3,154.8l75.7,38.9l38.9-75.7l10.2,5.3l-38.9,75.7l75.7,38.9l-5.3,10.2L420,209.2
			l-38.9,75.7l-10.2-5.3l38.9-75.7L334.1,165L339.3,154.8z"/>
		<path fill="#404041" d="M1151.6,408.1l-38.9,75.7l33.5,17.2l38.9-75.7l75.7,38.9l17.2-33.5l-75.7-38.9l38.9-75.7l-33.5-17.2
			l-38.9,75.7l-75.7-38.9l-17.2,33.5L1151.6,408.1z M1093.7,337.8l75.7,38.9l38.9-75.7l30.8,15.8l-38.9,75.7l75.7,38.9l-15.8,30.8
			l-75.7-38.9l-38.9,75.7l-30.8-15.8l38.9-75.7l-75.7-38.9L1093.7,337.8z"/>
		<path fill="#404041" d="M1167.1,403.1l-38.9,75.7l13,6.7l38.9-75.7l75.7,38.9l6.7-13l-75.7-38.9l38.9-75.7l-13-6.7l-38.9,75.7
			l-75.7-38.9l-6.7,13L1167.1,403.1z M1098.7,353.3l75.7,38.9l38.9-75.7l10.2,5.3l-38.9,75.7l75.7,38.9l-5.3,10.2l-75.7-38.9
			l-38.9,75.7l-10.2-5.3l38.9-75.7l-75.7-38.9L1098.7,353.3z"/>
		<path fill="#404041" d="M1088,320.2l-27.7,54l75.7,38.9l-38.9,75.7l54,27.7l38.9-75.7l75.7,38.9l27.7-54l-75.7-38.9l38.9-75.7
			l-54-27.7l-38.9,75.7L1088,320.2z M1203.3,285.4l51.3,26.3l-38.9,75.7l75.7,38.9l-26.3,51.3l-75.7-38.9l-38.9,75.7l-51.3-26.3
			l38.9-75.7l-75.7-38.9l26.3-51.3l75.7,38.9L1203.3,285.4z"/>
		<path fill="#404041" d="M596,397l-38.9,75.7l13,6.7l38.9-75.7l75.7,38.9l6.7-13l-75.7-38.9l38.9-75.7l-13-6.7L602.7,384L527,345.1
			l-6.7,13L596,397z M527.6,347.2l75.7,38.9l38.9-75.7l10.2,5.3l-38.9,75.7l75.7,38.9l-5.3,10.2l-75.7-38.9l-38.9,75.7l-10.2-5.3
			l38.9-75.7l-75.7-38.9L527.6,347.2z"/>
		<polygon fill="#404041" points="648.4,886 635.4,879.3 596.6,955 520.8,916.1 514.2,929.1 589.9,968 583.7,980 585.5,980 
			592,967.3 516.2,928.4 521.5,918.2 597.2,957.1 636.1,881.4 646.3,886.6 607.5,962.4 641.8,980 645.2,980 609.5,961.7 		"/>
		<path fill="#404041" d="M683.6,495.3l-54-27.7l-38.9,75.7l-75.7-38.9l-27.7,54l75.7,38.9L524,673l54,27.7l38.9-75.7l75.7,38.9
			l27.7-54L644.7,571L683.6,495.3z M718.3,610.6L692,661.8L616.3,623l-38.9,75.7l-51.3-26.3l38.9-75.7l-75.7-38.9l26.3-51.3
			l75.7,38.9l38.9-75.7l51.3,26.3l-38.9,75.7L718.3,610.6z"/>
		<polygon fill="#404041" points="663.9,881 630.5,863.8 591.6,939.5 515.8,900.6 498.6,934.1 574.4,973 570.8,980 572.5,980 
			576.4,972.3 500.7,933.4 516.5,902.7 592.2,941.6 631.1,865.8 661.9,881.6 623,957.4 667.1,980 670.4,980 625,956.7 		"/>
		<path fill="#404041" d="M652.5,505.3l-13-6.7l-38.9,75.7l-75.7-38.9l-6.7,13l75.7,38.9L555.1,663l13,6.7L607,594l75.7,38.9l6.7-13
			L613.6,581L652.5,505.3z M687.3,620.5l-5.3,10.2l-75.7-38.9l-38.9,75.7l-10.2-5.3l38.9-75.7l-75.7-38.9l5.3-10.2l75.7,38.9
			l38.9-75.7l10.2,5.3l-38.9,75.7L687.3,620.5z"/>
		<path fill="#404041" d="M1073.4,668l27.7-54l-75.7-38.9l38.9-75.7l-54-27.7l-38.9,75.7l-75.7-38.9l-27.7,54l75.7,38.9l-38.9,75.7
			l54,27.7l38.9-75.7L1073.4,668z M958.1,702.8l-51.3-26.3l38.9-75.7L870,561.8l26.3-51.3l75.7,38.9l38.9-75.7l51.3,26.3l-38.9,75.7
			l75.7,38.9l-26.3,51.3L997,627.1L958.1,702.8z"/>
		<polygon fill="#404041" points="598.4,980 600.1,980 602.9,974.7 613.3,980 616.6,980 602.2,972.6 		"/>
		<path fill="#404041" d="M1009.8,580.1l38.9-75.7l-33.5-17.2l-38.9,75.7L900.6,524l-17.2,33.5l75.7,38.9l-38.9,75.7l33.5,17.2
			l38.9-75.7l75.7,38.9l17.2-33.5L1009.8,580.1z M1067.7,650.4L992,611.5l-38.9,75.7l-30.8-15.8l38.9-75.7l-75.7-38.9l15.8-30.8
			L977,565l38.9-75.7l30.8,15.8l-38.9,75.7l75.7,38.9L1067.7,650.4z"/>
		<polygon fill="#404041" points="838.7,888 825.8,881.4 786.9,957.1 711.2,918.2 704.5,931.2 780.2,970 775.1,980 776.9,980 
			782.3,969.4 706.6,930.5 711.8,920.3 787.6,959.1 826.5,883.4 836.7,888.7 797.8,964.4 828.2,980 831.5,980 799.9,963.7 		"/>
		<path fill="#404041" d="M994.3,585.1l38.9-75.7l-13-6.7l-38.9,75.7l-75.7-38.9l-6.7,13l75.7,38.9l-38.9,75.7l13,6.7l38.9-75.7
			l75.7,38.9l6.7-13L994.3,585.1z M1062.7,634.9L987,596l-38.9,75.7l-10.2-5.3l38.9-75.7L901,551.8l5.3-10.2l75.7,38.9l38.9-75.7
			l10.2,5.3l-38.9,75.7l75.7,38.9L1062.7,634.9z"/>
		<polygon fill="#404041" points="854.3,883 820.8,865.8 781.9,941.6 706.2,902.7 689,936.1 764.7,975 762.2,980 763.9,980 
			766.8,974.4 691,935.5 706.8,904.7 782.6,943.6 821.5,867.9 852.2,883.7 813.3,959.4 853.4,980 856.8,980 815.4,958.7 		"/>
		<polygon fill="#404041" points="869.8,878 815.8,850.3 776.9,926 701.2,887.1 673.5,941.1 749.1,980 750.9,980 751.2,979.4 
			675.5,940.5 701.9,889.2 777.6,928.1 816.5,852.4 867.8,878.7 828.9,954.4 878.7,980 882,980 830.9,953.8 		"/>
		<path fill="#404041" d="M668,500.3l-33.5-17.2l-38.9,75.7l-75.7-38.9l-17.2,33.5l75.7,38.9L539.6,668l33.5,17.2l38.9-75.7
			l75.7,38.9l17.2-33.5L629.1,576L668,500.3z M702.8,615.6L687,646.3l-75.7-38.9l-38.9,75.7l-30.8-15.8l38.9-75.7l-75.7-38.9
			l15.8-30.8l75.7,38.9l38.9-75.7l30.8,15.8l-38.9,75.7L702.8,615.6z"/>
		<polygon fill="#404041" points="489.1,873.9 435.1,846.2 396.2,921.9 320.5,883 292.8,937 368.5,975.9 366.4,980 368.1,980 
			370.6,975.3 294.8,936.4 321.2,885.1 396.9,924 435.8,848.3 487.1,874.6 448.2,950.3 506,980 509.3,980 450.2,949.7 		"/>
		<path fill="#404041" d="M804,583l38.9-75.7l-13-6.7L791,576.4l-75.7-38.9l-6.7,13l75.7,38.9l-38.9,75.7l13,6.7l38.9-75.7
			l75.7,38.9l6.7-13L804,583z M872.4,632.8l-75.7-38.9l-38.9,75.7l-10.2-5.3l38.9-75.7l-75.7-38.9l5.3-10.2l75.7,38.9l38.9-75.7
			l10.2,5.3l-38.9,75.7l75.7,38.9L872.4,632.8z"/>
		<polygon fill="#404041" points="215.6,980 217.3,980 222.2,970.6 240.6,980 243.9,980 221.5,968.5 		"/>
		<polygon fill="#404041" points="473.6,878.9 440.1,861.7 401.2,937.5 325.5,898.6 308.3,932.1 384,970.9 379.4,980 381.1,980 
			386.1,970.3 310.4,931.4 326.1,900.6 401.9,939.5 440.8,863.8 471.5,879.6 432.6,955.3 480.7,980 484.1,980 434.7,954.7 		"/>
		<path fill="#404041" d="M452.3,759.3l38.9-75.7l-54-27.7l-38.9,75.7l-75.7-38.9l-27.7,54l75.7,38.9l-38.9,75.7l54,27.7l38.9-75.7
			l75.7,38.9l27.7-54L452.3,759.3z M499.6,850.1l-75.7-38.9L385,887l-51.3-26.3l38.9-75.7L296.9,746l26.3-51.3l75.7,38.9l38.9-75.7
			l51.3,26.3L450.2,760l75.7,38.9L499.6,850.1z"/>
		<path fill="#404041" d="M819.5,578.1l38.9-75.7l-33.5-17.2L786,560.9L710.3,522l-17.2,33.5l75.7,38.9l-38.9,75.7l33.5,17.2
			l38.9-75.7l75.7,38.9l17.2-33.5L819.5,578.1z M877.4,648.4l-75.7-38.9l-38.9,75.7L732,669.4l38.9-75.7l-75.7-38.9l15.8-30.8
			l75.7,38.9l38.9-75.7l30.8,15.8l-38.9,75.7l75.7,38.9L877.4,648.4z"/>
		<polygon fill="#404041" points="679.5,876 625.5,848.2 586.6,924 510.8,885.1 483.1,939.1 558.8,978 557.8,980 559.5,980 
			560.9,977.3 485.2,938.4 511.5,887.1 587.2,926 626.1,850.3 677.4,876.6 638.5,952.4 692.3,980 695.7,980 640.6,951.7 		"/>
		<path fill="#404041" d="M883,666l27.7-54L835,573.1l38.9-75.7l-54-27.7L781,545.3l-75.7-38.9l-27.7,54l75.7,38.9l-38.9,75.7
			l54,27.7l38.9-75.7L883,666z M767.7,700.7l-51.3-26.3l38.9-75.7l-75.7-38.9l26.3-51.3l75.7,38.9l38.9-75.7l51.3,26.3L833,573.7
			l75.7,38.9l-26.3,51.3L806.6,625L767.7,700.7z"/>
		<polygon fill="#404041" points="407,980 408.7,980 412.5,972.6 426.9,980 430.3,980 411.9,970.5 		"/>
		<polygon fill="#404041" points="458.1,883.9 445.1,877.3 406.2,953 330.5,914.1 323.8,927.1 399.6,965.9 392.3,980 394.1,980 
			401.6,965.3 325.9,926.4 331.1,916.2 406.9,955 445.8,879.3 456,884.6 417.1,960.3 455.5,980 458.8,980 419.2,959.6 		"/>
		<path fill="#404041" d="M162.1,980l0.6-1.2L87,939.9l38.2-74.4l75.7,38.9l38.9-75.7l74.4,38.2l-38.9,75.7L348,980h3.3l-74-38
			l38.2-74.4l75.7,38.9l38.9-75.7l74.4,38.2l-38.9,75.7l68.7,35.3h3.3l-70-36l38.2-74.4l75.7,38.9l38.9-75.7l74.4,38.2L656,946.8
			l64.7,33.2h3.3l-66-33.9l38.2-74.4l75.7,38.9l38.9-75.7l74.4,38.2l-38.9,75.7l60.8,31.2h3.3l-62-31.9l38.2-74.4l75.7,38.9
			l38.9-75.7l74.4,38.2l-38.9,75.7l56.8,29.2h3.3l-58.1-29.8l38.2-74.4l75.7,38.9l38.9-75.7l74.4,38.2l-38.9,75.7l52.8,27.1h3.3
			l-54.1-27.8l38.2-74.4l75.7,38.9l38.9-75.7l18.1,9.3v-1.7l-18.8-9.6l-38.9,75.7l-74.4-38.2l38.9-75.7l-75.7-38.9l38.2-74.4
			l75.7,38.9l38.9-75.7l16.1,8.2v-1.7l-16.7-8.6l-38.9,75.7l-74.4-38.2l38.9-75.7l-75.7-38.9l38.2-74.4l75.7,38.9l38.9-75.7l14,7.2
			v-1.7l-14.7-7.5l-38.9,75.7l-74.4-38.2l38.9-75.7l-75.7-38.9l38.2-74.4l75.7,38.9L1388,270l12,6.1v-1.7l-12.6-6.5l-38.9,75.7
			l-74.4-38.2l38.9-75.7l-75.7-38.9l38.2-74.4l75.7,38.9l38.9-75.7l9.9,5.1V83l-10.6-5.4l-38.9,75.7l-74.4-38.2l38.9-75.7
			l-75.7-38.9l0.3-0.5h-1.7l-0.6,1.2l75.7,38.9l-38.2,74.4l-75.7-38.9l-38.9,75.7l-74.4-38.2l38.9-75.7L1052,0h-3.3l74,38
			l-38.2,74.4l-75.7-38.9l-38.9,75.7l-48-24.7L895.5,111l38.9-75.7L865.6,0h-3.3l70,36l-38.2,74.4l-75.7-38.9l-38.9,75.7L705.1,109
			L744,33.2L679.3,0h-3.3l66,33.9l-38.2,74.4L628,69.4l-38.9,75.7l-74.4-38.2l38.9-75.7L492.9,0h-3.3l62,31.9l-38.2,74.4l-75.7-38.9
			l-38.9,75.7l-74.4-38.2l38.9-75.7L306.6,0h-3.3l58.1,29.8l-38.2,74.4l-75.7-38.9L208.5,141l-74.4-38.2L173,27.1L120.2,0h-3.3
			l54.1,27.8l-38.2,74.4L57,63.2L18.1,139L0,129.7v1.7l18.8,9.6l38.9-75.7l74.4,38.2l-38.9,75.7l75.7,38.9l-38.2,74.4l-75.7-38.9
			l-38.9,75.7L0,321.1v1.7l16.7,8.6l38.9-75.7l74.4,38.2l-38.9,75.7l75.7,38.9l-38.2,74.4l-75.7-38.9L14,519.7l-14-7.2v1.7l14.7,7.5
			L53.6,446l74.4,38.2L89,559.9l75.7,38.9l-38.2,74.4l-75.7-38.9L12,710l-12-6.1v1.7l12.6,6.5l38.9-75.7l74.4,38.2L87,750.3
			l75.7,38.9l-38.2,74.4l-75.7-38.9L9.9,900.4L0,895.3v1.7l10.6,5.4l38.9-75.7l74.4,38.2l-38.9,75.7l75.7,38.9l-0.3,0.5H162.1z
			 M505.2,867.6l-75.7-38.9l-38.9,75.7l-74.4-38.2l38.9-75.7l-75.7-38.9l38.2-74.4l75.7,38.9l38.9-75.7l74.4,38.2l-38.9,75.7
			l75.7,38.9L505.2,867.6z M737.9,604.3l-75.7-38.9l38.2-74.4l75.7,38.9l38.9-75.7l74.4,38.2l-38.9,75.7l75.7,38.9L888,681.4
			l-75.7-38.9l-38.9,75.7L699,680L737.9,604.3z M697.6,679.3l-75.7-38.9L583,716.2L508.6,678l38.9-75.7l-75.7-38.9L510,489
			l75.7,38.9l38.9-75.7l74.4,38.2l-38.9,75.7l75.7,38.9L697.6,679.3z M928.2,606.3l-75.7-38.9l38.2-74.4l75.7,38.9l38.9-75.7
			l74.4,38.2l-38.9,75.7l75.7,38.9l-38.2,74.4l-75.7-38.9l-38.9,75.7l-74.4-38.2L928.2,606.3z M1004.6,454.2l-38.9,75.7l-74.4-38.2
			l38.9-75.7l-75.7-38.9l38.2-74.4l75.7,38.9l38.9-75.7l74.4,38.2l-38.9,75.7l75.7,38.9l-38.2,74.4L1004.6,454.2z M852.5,377.8
			l75.7,38.9L890,491l-75.7-38.9l-38.9,75.7L701,489.7l38.9-75.7l-75.7-38.9l38.2-74.4l75.7,38.9l38.9-75.7l74.4,38.2L852.5,377.8z
			 M662.1,375.7l75.7,38.9L699.7,489l-75.7-38.9l-38.9,75.7l-74.4-38.2l38.9-75.7L473.8,373l38.2-74.4l75.7,38.9l38.9-75.7L701,300
			L662.1,375.7z M471.8,373.7l75.7,38.9l-38.2,74.4L433.6,448l-38.9,75.7l-74.4-38.2l38.9-75.7L283.5,371l38.2-74.4l75.7,38.9
			l38.9-75.7l74.4,38.2L471.8,373.7z M395.4,525.8l38.9-75.7l74.4,38.2L469.7,564l75.7,38.9l-38.2,74.4l-75.7-38.9l-38.9,75.7
			l-74.4-38.2l38.9-75.7l-75.7-38.9l38.2-74.4L395.4,525.8z M695.6,869.7l-75.7-38.9L581,906.5l-74.4-38.2l38.9-75.7l-75.7-38.9
			l38.2-74.4l75.7,38.9l38.9-75.7l74.4,38.2L658,756.4l75.7,38.9L695.6,869.7z M885.9,871.7l-75.7-38.9l-38.9,75.7l-74.4-38.2
			l38.9-75.7l-75.7-38.9l38.2-74.4l75.7,38.9l38.9-75.7l74.4,38.2l-38.9,75.7l75.7,38.9L885.9,871.7z M1076.3,873.8l-75.7-38.9
			l-38.9,75.7l-74.4-38.2l38.9-75.7l-75.7-38.9l38.2-74.4l75.7,38.9l38.9-75.7l74.4,38.2l-38.9,75.7l75.7,38.9L1076.3,873.8z
			 M1229.1,762.5l75.7,38.9l-38.2,74.4l-75.7-38.9l-38.9,75.7l-74.4-38.2l38.9-75.7l-75.7-38.9l38.2-74.4l75.7,38.9l38.9-75.7
			l74.4,38.2L1229.1,762.5z M1231.1,572.2l75.7,38.9l-38.2,74.4l-75.7-38.9l-38.9,75.7l-74.4-38.2l38.9-75.7l-75.7-38.9l38.2-74.4
			l75.7,38.9l38.9-75.7l74.4,38.2L1231.1,572.2z M1233.2,381.9l75.7,38.9l-38.2,74.4l-75.7-38.9l-38.9,75.7l-74.4-38.2l38.9-75.7
			l-75.7-38.9l38.2-74.4l0,0l0,0l75.7,38.9l38.9-75.7l74.4,38.2L1233.2,381.9z M1085.1,114.4l75.7,38.9l38.9-75.7l74.4,38.2
			l-38.9,75.7l75.7,38.9l-24.7,48l-13.5,26.3l-75.7-38.9l-38.9,75.7l-74.4-38.2l38.9-75.7l-75.7-38.9L1085.1,114.4z M894.8,112.4
			l75.7,38.9l38.9-75.7l74.4,38.2l-38.9,75.7l75.7,38.9l-38.2,74.4l-75.7-38.9l-38.9,75.7l-74.4-38.2l38.9-75.7l-75.7-38.9
			L894.8,112.4z M704.4,110.3l75.7,38.9L819,73.5l74.4,38.2l-38.9,75.7l75.7,38.9l-38.2,74.4l-75.7-38.9l-38.9,75.7l-74.4-38.2
			l38.9-75.7l-75.7-38.9L704.4,110.3z M514.1,108.3l75.7,38.9l38.9-75.7l74.4,38.2l-38.9,75.7l75.7,38.9l-38.2,74.4L626,259.7
			l-38.9,75.7l-74.4-38.2l38.9-75.7l-75.7-38.9L514.1,108.3z M323.7,106.2L323.7,106.2L323.7,106.2l75.7,38.9l38.9-75.7l74.4,38.2
			l-38.9,75.7l75.7,38.9l-38.2,74.4l-75.7-38.9l-38.9,75.7l-74.4-38.2l38.9-75.7l-75.7-38.9L323.7,106.2z M170.9,217.4l-75.7-38.9
			l38.2-74.4l75.7,38.9L248,67.4l74.4,38.2l-38.9,75.7l75.7,38.9L321,294.5l-75.7-38.9l-38.9,75.7L132,293.2L170.9,217.4z
			 M168.9,407.8l-75.7-38.9l38.2-74.4l75.7,38.9l38.9-75.7l74.4,38.2l-38.9,75.7l75.7,38.9L319,484.9L243.2,446l-38.9,75.7
			L130,483.5L168.9,407.8z M166.8,598.1l-75.7-38.9l38.2-74.4l75.7,38.9l38.9-75.7l74.4,38.2L279.4,562l75.7,38.9l-38.2,74.4
			l-75.7-38.9l-38.9,75.7l-74.4-38.2L166.8,598.1z M164.8,788.5l-75.7-38.9l38.2-74.4l75.7,38.9l38.9-75.7l74.4,38.2l-38.9,75.7
			l75.7,38.9l-38.2,74.4l-75.7-38.9l-38.9,75.7l-74.4-38.2L164.8,788.5z"/>
		<path fill="#404041" d="M390.2,399.9l-38.9,75.7l33.5,17.2l38.9-75.7l75.7,38.9l17.2-33.5l-75.7-38.9l38.9-75.7l-33.5-17.2
			l-38.9,75.7l-75.7-38.9L314.4,361L390.2,399.9z M332.3,329.6l75.7,38.9l38.9-75.7l30.8,15.8l-38.9,75.7l75.7,38.9l-15.8,30.8
			L423,415l-38.9,75.7L353.3,475l38.9-75.7l-75.7-38.9L332.3,329.6z"/>
		<path fill="#404041" d="M770.9,404L732,479.7l33.5,17.2l38.9-75.7l75.7,38.9l17.2-33.5l-75.7-38.9l38.9-75.7l-33.5-17.2
			l-38.9,75.7l-75.7-38.9l-17.2,33.5L770.9,404z M713,333.7l75.7,38.9l38.9-75.7l30.8,15.8l-38.9,75.7l75.7,38.9L879.4,458
			l-75.7-38.9l-38.9,75.7L734,479.1l38.9-75.7l-75.7-38.9L713,333.7z"/>
		<path fill="#404041" d="M707.3,316.1l-27.7,54l75.7,38.9l-38.9,75.7l54,27.7l38.9-75.7l75.7,38.9l27.7-54l-75.7-38.9L876,307
			l-54-27.7L783.1,355L707.3,316.1z M822.6,281.3l51.3,26.3L835,383.4l75.7,38.9l-26.3,51.3l-75.7-38.9l-38.9,75.7l-51.3-26.3
			l38.9-75.7l-75.7-38.9l26.3-51.3l75.7,38.9L822.6,281.3z"/>
		<polygon fill="#404041" points="1219.4,892.1 1206.5,885.5 1167.6,961.2 1091.9,922.3 1085.2,935.2 1160.9,974.1 1157.9,980 
			1159.6,980 1163,973.5 1087.3,934.6 1092.5,924.3 1168.3,963.2 1207.1,887.5 1217.4,892.8 1178.5,968.5 1200.9,980 1204.2,980 
			1180.6,967.8 		"/>
		<path fill="#404041" d="M772.9,213.6L734,289.4l33.5,17.2l38.9-75.7l75.7,38.9l17.2-33.5l-75.7-38.9l38.9-75.7L829,104.4
			l-38.9,75.7l-75.7-38.9l-17.2,33.5L772.9,213.6z M715,143.3l75.7,38.9l38.9-75.7l30.8,15.8L821.5,198l75.7,38.9l-15.8,30.8
			l-75.7-38.9l-38.9,75.7l-30.8-15.8L775,213l-75.7-38.9L715,143.3z"/>
		<polygon fill="#404041" points="1172.6,980 1175.7,980 1173.2,978.7 		"/>
		<path fill="#404041" d="M405.7,394.9l-38.9,75.7l13,6.7l38.9-75.7l75.7,38.9l6.7-13l-75.7-38.9l38.9-75.7l-13-6.7l-38.9,75.7
			l-75.7-38.9l-6.7,13L405.7,394.9z M337.3,345.1L413,384l38.9-75.7l10.2,5.3l-38.9,75.7l75.7,38.9l-5.3,10.2L418,399.5l-38.9,75.7
			l-10.2-5.3l38.9-75.7L332,355.4L337.3,345.1z"/>
		<path fill="#404041" d="M580.5,401.9l-38.9,75.7l33.5,17.2l38.9-75.7l75.7,38.9l17.2-33.5l-75.7-38.9l38.9-75.7l-33.5-17.2
			l-38.9,75.7L522,329.6l-17.2,33.5L580.5,401.9z M522.6,331.6l75.7,38.9l38.9-75.7l30.8,15.8l-38.9,75.7l75.7,38.9L689.1,456
			l-75.7-38.9l-38.9,75.7L543.7,477l38.9-75.7l-75.7-38.9L522.6,331.6z"/>
		<path fill="#404041" d="M246.4,762.3l38.9-75.7l-33.5-17.2l-38.9,75.7l-75.7-38.9L120,739.7l75.7,38.9l-38.9,75.7l33.5,17.2
			l38.9-75.7l75.7,38.9l17.2-33.5L246.4,762.3z M304.3,832.6l-75.7-38.9l-38.9,75.7l-30.8-15.8l38.9-75.7L122.1,739l15.8-30.8
			l75.7,38.9l38.9-75.7l30.8,15.8l-38.9,75.7l75.7,38.9L304.3,832.6z"/>
		<polygon fill="#404041" points="789.8,980 791.5,980 793.2,976.7 799.6,980 803,980 792.5,974.6 		"/>
		<path fill="#404041" d="M517,314l-27.7,54l75.7,38.9l-38.9,75.7l54,27.7l38.9-75.7l75.7,38.9l27.7-54l-75.7-38.9l38.9-75.7
			l-54-27.7l-38.9,75.7L517,314z M632.3,279.3l51.3,26.3l-38.9,75.7l75.7,38.9l-26.3,51.3l-75.7-38.9l-38.9,75.7L528.2,482
			l38.9-75.7l-75.7-38.9l26.3-51.3l75.7,38.9L632.3,279.3z"/>
		<path fill="#404041" d="M309.9,850.2l27.7-54l-75.7-38.9l38.9-75.7l-54-27.7l-38.9,75.7l-75.7-38.9l-27.7,54l75.7,38.9l-38.9,75.7
			l54,27.7l38.9-75.7L309.9,850.2z M194.6,884.9l-51.3-26.3l38.9-75.7L106.5,744l26.3-51.3l75.7,38.9l38.9-75.7l51.3,26.3
			l-38.9,75.7l75.7,38.9l-26.3,51.3l-75.7-38.9L194.6,884.9z"/>
		<polygon fill="#404041" points="1044.6,885.1 1011.1,867.9 972.3,943.6 896.5,904.7 879.3,938.2 955.1,977.1 953.6,980 955.3,980 
			957.1,976.4 881.4,937.5 897.2,906.8 972.9,945.7 1011.8,869.9 1042.6,885.7 1003.7,961.5 1039.8,980 1043.1,980 1005.7,960.8 		
			"/>
		<path fill="#404041" d="M1011.9,389.8l38.9-75.7l-33.5-17.2l-38.9,75.7l-75.7-38.9l-17.2,33.5l75.7,38.9l-38.9,75.7l33.5,17.2
			l38.9-75.7l75.7,38.9l17.2-33.5L1011.9,389.8z M1069.8,460.1L994,421.2l-38.9,75.7l-30.8-15.8l38.9-75.7l-75.7-38.9l15.8-30.8
			l75.7,38.9l38.9-75.7l30.8,15.8l-38.9,75.7l75.7,38.9L1069.8,460.1z"/>
		<polygon fill="#404041" points="1029.1,890.1 1016.1,883.4 977.2,959.1 901.5,920.2 894.9,933.2 970.6,972.1 966.5,980 968.2,980 
			972.7,971.4 896.9,932.5 902.2,922.3 977.9,961.2 1016.8,885.5 1027,890.7 988.2,966.4 1014.5,980 1017.9,980 990.2,965.8 		"/>
		<polygon fill="#404041" points="1235,887.1 1201.5,869.9 1162.6,945.6 1086.9,906.8 1069.7,940.2 1145.4,979.1 1145,980 
			1146.7,980 1147.5,978.5 1071.7,939.6 1087.5,908.8 1163.3,947.7 1202.2,872 1232.9,887.8 1194,963.5 1226.2,980 1229.5,980 
			1196.1,962.8 		"/>
		<polygon fill="#404041" points="1060.2,880.1 1006.2,852.3 967.3,928.1 891.5,889.2 863.8,943.2 935.5,980 938.8,980 865.9,942.5 
			892.2,891.2 967.9,930.1 1006.8,854.4 1058.1,880.7 1019.2,956.5 1065,980 1068.4,980 1021.3,955.8 		"/>
		<path fill="#404041" d="M996.3,394.7l38.9-75.7l-13-6.7l-38.9,75.7l-75.7-38.9l-6.7,13l75.7,38.9l-38.9,75.7l13,6.7l38.9-75.7
			l75.7,38.9l6.7-13L996.3,394.7z M1064.8,444.5L989,405.6l-38.9,75.7l-10.2-5.3l38.9-75.7l-75.7-38.9l5.3-10.2l75.7,38.9l38.9-75.7
			l10.2,5.3l-38.9,75.7l75.7,38.9L1064.8,444.5z"/>
		<polygon fill="#404041" points="1250.5,882.1 1196.5,854.4 1157.6,930.1 1081.9,891.2 1054.2,945.2 1121.9,980 1125.2,980 
			1056.2,944.6 1082.5,893.3 1158.3,932.2 1197.2,856.4 1248.4,882.8 1209.6,958.5 1251.4,980 1254.7,980 1211.6,957.8 		"/>
		<path fill="#404041" d="M786.4,399l-38.9,75.7l13,6.7l38.9-75.7l75.7,38.9l6.7-13L806,392.7l38.9-75.7l-13-6.7L793,386l-75.7-38.9
			l-6.7,13L786.4,399z M718,349.2l75.7,38.9l38.9-75.7l10.2,5.3l-38.9,75.7l75.7,38.9l-5.3,10.2l-75.7-38.9l-38.9,75.7l-10.2-5.3
			l38.9-75.7l-75.7-38.9L718,349.2z"/>
		<polygon fill="#404041" points="981.2,980 982.9,980 983.6,978.7 986,980 989.3,980 982.9,976.7 		"/>
		<path fill="#404041" d="M1027.4,384.8l38.9-75.7l-54-27.7L973.4,357l-75.7-38.9l-27.7,54l75.7,38.9l-38.9,75.7l54,27.7l38.9-75.7
			l75.7,38.9l27.7-54L1027.4,384.8z M1074.7,475.6L999,436.7l-38.9,75.7l-51.3-26.3l38.9-75.7L872,371.5l26.3-51.3l75.7,38.9
			l38.9-75.7l51.3,26.3l-38.9,75.7l75.7,38.9L1074.7,475.6z"/>
	</g>
	<path fill="#404041" d="M108.4,869.8l-54-27.7l-38.9,75.7l-15.5-8v1.7l16.2,8.3l38.9-75.7l51.3,26.3l-38.9,75.7l65.8,33.8h3.3
		l-67.1-34.4L108.4,869.8z M1348,932.2l-75.7-38.9l-27.7,54l63.7,32.7h3.3l-65-33.4l26.3-51.3l75.7,38.9l38.9-75.7l12.5,6.4v-1.7
		l-13.2-6.8L1348,932.2z M1400,782.2v-1.7l-11.5-5.9l11.5-22.4v-3.3l-13.6,26.4L1400,782.2z M1029.1,890.1l-13-6.7l-38.9,75.7
		l-75.7-38.9l-6.7,13l75.7,38.9l-4.1,7.9h1.7l4.4-8.6l-75.7-38.9l5.3-10.2l75.7,38.9l38.9-75.7l10.2,5.3l-38.9,75.7l26.4,13.6h3.3
		l-27.7-14.2L1029.1,890.1z M1352.9,947.7l-75.7-38.9l-17.2,33.5l73.4,37.7h3.3l-74.7-38.4l15.8-30.8l75.7,38.9l38.9-75.7l7.5,3.9
		v-1.7l-8.2-4.2L1352.9,947.7z M215.6,980h1.7l4.9-9.4l18.4,9.4h3.3l-22.4-11.5L215.6,980z M1357.9,963.2l-75.7-38.9l-6.7,13
		l75.7,38.9l-2,3.8h1.7l2.3-4.5l-75.7-38.9l5.3-10.2l75.7,38.9l38.9-75.7l2.5,1.3v-1.7l-3.2-1.6L1357.9,963.2z M1387.3,980h3.3
		l-19.7-10.1l29.1-56.7v-3.3l-31.2,60.7L1387.3,980z M92.9,874.8l-33.5-17.2l-38.9,75.7L0,922.8v1.7l21.2,10.9l38.9-75.7l30.8,15.8
		l-38.9,75.7L108,980h3.3L54,950.6L92.9,874.8z M267.7,881.9l-13-6.7l-38.9,75.7l-75.7-38.9l-6.7,13l75.7,38.9l-8.3,16.1h1.7
		l8.6-16.8l-75.7-38.9l5.3-10.2l75.7,38.9l38.9-75.7l10.2,5.3l-38.9,75.7l42.3,21.7h3.3l-43.6-22.4L267.7,881.9z M1060.2,880.1
		l-54-27.7l-38.9,75.7l-75.7-38.9l-27.7,54l71.7,36.8h3.3l-73-37.5l26.3-51.3l75.7,38.9l38.9-75.7l51.3,26.3l-38.9,75.7L1065,980
		h3.3l-47.1-24.2L1060.2,880.1z M0,965.1l3.3,1.7L0,973.3v3.3l5.4-10.5L0,963.4V965.1z M1044.6,885.1l-33.5-17.2l-38.9,75.7
		l-75.7-38.9l-17.2,33.5l75.7,38.9l-1.5,2.9h1.7l1.8-3.6l-75.7-38.9l15.8-30.8l75.7,38.9l38.9-75.7l30.8,15.8l-38.9,75.7l36.1,18.5
		h3.3l-37.4-19.2L1044.6,885.1z M1360,772.9l-75.7-38.9l-6.7,13l75.7,38.9l-38.9,75.7l13,6.7l38.9-75.7l33.7,17.3v-1.7l-34.4-17.6
		l-38.9,75.7l-10.2-5.3l38.9-75.7l-75.7-38.9l5.3-10.2l75.7,38.9l38.9-75.7l0.5,0.2v-1.7l-1.1-0.6L1360,772.9z M43.9,809.2
		l75.7,38.9l27.7-54l-75.7-38.9l38.9-75.7l-54-27.7l-38.9,75.7l-17.6-9v1.7l18.2,9.4l38.9-75.7l51.3,26.3l-38.9,75.7l75.7,38.9
		l-26.3,51.3l-75.7-38.9L4.3,882.9L0,880.7v1.7l5,2.5L43.9,809.2z M1355,757.4l-75.7-38.9l-17.2,33.5l75.7,38.9l-38.9,75.7
		l33.5,17.2l38.9-75.7l28.7,14.7v-1.7l-29.4-15.1l-38.9,75.7l-30.8-15.8l38.9-75.7l-75.7-38.9l15.8-30.8l75.7,38.9l38.9-75.7
		l5.5,2.8v-1.7l-6.1-3.1L1355,757.4z M77.4,879.8l-13-6.7l-38.9,75.7L0,935.8v1.7L26.2,951l38.9-75.7l10.2,5.3l-38.9,75.7L82.8,980
		h3.3l-47.6-24.5L77.4,879.8z M0,952.2l18.9,9.7L9.5,980h1.7l9.7-18.8L0,950.4V952.2z M1400,795.1v-1.7l-27.1-13.9l27.1-52.7v-3.3
		l-29.1,56.7L1400,795.1z M24.2,980h1.7l5.9-11.5L54.2,980h3.3l-26.4-13.6L24.2,980z M1235,887.1l-33.5-17.2l-38.9,75.7l-75.7-38.9
		l-17.2,33.5l75.7,38.9l-0.4,0.9h1.7l0.8-1.5l-75.7-38.9l15.8-30.8l75.7,38.9l38.9-75.7l30.8,15.8l-38.9,75.7l32.1,16.5h3.3
		l-33.4-17.2L1235,887.1z M869.8,878l-54-27.7L776.9,926l-75.7-38.9l-27.7,54l75.7,38.9h1.8l0.3-0.6l-75.7-38.9l26.3-51.3l75.7,38.9
		l38.9-75.7l51.3,26.3l-38.9,75.7l49.8,25.6h3.3l-51.1-26.2L869.8,878z M1219.4,892.1l-13-6.7l-38.9,75.7l-75.7-38.9l-6.7,13
		l75.7,38.9l-3,5.9h1.7l3.4-6.5l-75.7-38.9l5.3-10.2l75.7,38.9l38.9-75.7l10.2,5.3l-38.9,75.7l22.4,11.5h3.3l-23.7-12.2
		L1219.4,892.1z M663.9,881l-33.5-17.2l-38.9,75.7l-75.7-38.9l-17.2,33.5l75.7,38.9l-3.6,7h1.7l3.9-7.7l-75.7-38.9l15.8-30.8
		l75.7,38.9l38.9-75.7l30.8,15.8L623,957.4l44.1,22.6h3.3L625,956.7L663.9,881z M598.4,980h1.7l2.7-5.3l10.4,5.3h3.3l-14.4-7.4
		L598.4,980z M838.7,888l-13-6.7l-38.9,75.7l-75.7-38.9l-6.7,13l75.7,38.9l-5.1,10h1.7l5.5-10.6l-75.7-38.9l5.3-10.2l75.7,38.9
		l38.9-75.7l10.2,5.3l-38.9,75.7l30.4,15.6h3.3l-31.7-16.3L838.7,888z M648.4,886l-13-6.7L596.6,955l-75.7-38.9l-6.7,13l75.7,38.9
		l-6.2,12h1.7l6.5-12.7l-75.7-38.9l5.3-10.2l75.7,38.9l38.9-75.7l10.2,5.3l-38.9,75.7l34.4,17.6h3.3l-35.7-18.3L648.4,886z
		 M789.8,980h1.7l1.7-3.3l6.4,3.3h3.3l-10.4-5.4L789.8,980z M1172.6,980h3.1l-2.5-1.3L1172.6,980z M679.5,876l-54-27.7L586.6,924
		l-75.7-38.9l-27.7,54l75.7,38.9l-1,2h1.7l1.4-2.7l-75.7-38.9l26.3-51.3l75.7,38.9l38.9-75.7l51.3,26.3l-38.9,75.7l53.8,27.6h3.3
		l-55.1-28.3L679.5,876z M854.3,883l-33.5-17.2l-38.9,75.7l-75.7-38.9L689,936.1l75.7,38.9l-2.6,5h1.7l2.9-5.6L691,935.5l15.8-30.8
		l75.7,38.9l38.9-75.7l30.8,15.8l-38.9,75.7l40.1,20.6h3.3l-41.4-21.3L854.3,883z M458.1,883.9l-13-6.7L406.2,953l-75.7-38.9
		l-6.7,13l75.7,38.9l-7.2,14.1h1.7l7.6-14.7l-75.7-38.9l5.3-10.2l75.7,38.9l38.9-75.7l10.2,5.3l-38.9,75.7l38.4,19.7h3.3l-39.6-20.4
		L458.1,883.9z M1400,973.6v-1.7l-13.6-7l13.6-26.4v-3.3l-15.6,30.4L1400,973.6z M407,980h1.7l3.8-7.4l14.4,7.4h3.3l-18.4-9.5
		L407,980z M489.1,873.9l-54-27.7l-38.9,75.7L320.5,883l-27.7,54l75.7,38.9l-2.1,4.1h1.7l2.4-4.7l-75.7-38.9l26.3-51.3l75.7,38.9
		l38.9-75.7l51.3,26.3l-38.9,75.7L506,980h3.3l-59.1-30.3L489.1,873.9z M981.2,980h1.7l0.6-1.3l2.4,1.3h3.3l-6.5-3.3L981.2,980z
		 M298.8,871.9l-54-27.7l-38.9,75.7L130.1,881l-27.7,54l75.7,38.9L175,980h1.7l3.5-6.8l-75.7-38.9l26.3-51.3l75.7,38.9l38.9-75.7
		l51.3,26.3l-38.9,75.7l61.8,31.7h3.3l-63.1-32.4L298.8,871.9z M283.2,876.9l-33.5-17.2l-38.9,75.7l-75.7-38.9L117.9,930l75.7,38.9
		L188,980h1.7l6-11.8L120,929.3l15.8-30.8l75.7,38.9l38.9-75.7l30.8,15.8l-38.9,75.7l52.1,26.7h3.3l-53.4-27.4L283.2,876.9z
		 M1250.5,882.1l-54-27.7l-38.9,75.7l-75.7-38.9l-27.7,54l67.7,34.8h3.3l-69-35.4l26.3-51.3l75.7,38.9l38.9-75.7l51.3,26.3
		l-38.9,75.7l41.8,21.5h3.3l-43.1-22.2L1250.5,882.1z M473.6,878.9l-33.5-17.2l-38.9,75.7l-75.7-38.9l-17.2,33.5l75.7,38.9l-4.7,9.1
		h1.7l5-9.7l-75.7-38.9l15.8-30.8l75.7,38.9l38.9-75.7l30.8,15.8l-38.9,75.7l48.1,24.7h3.3l-49.4-25.3L473.6,878.9z M1400,960.6
		v-0.2V960.6L1400,960.6z M42.1,16.8l75.7,38.9l6.7-13L48.7,3.8l2-3.8H49l-2.3,4.5l75.7,38.9l-5.3,10.2L41.4,14.7L2.5,90.4L0,89.2
		v1.7l3.2,1.6L42.1,16.8z M530.2,102l54,27.7L623.1,54l75.7,38.9l27.7-54L650.9,0h-1.8l-0.3,0.6l75.7,38.9l-26.3,51.3l-75.7-38.9
		l-38.9,75.7l-51.3-26.3l38.9-75.7L521.3,0H518l51.1,26.2L530.2,102z M418.8,0h-1.7l-0.6,1.3L414,0h-3.3l6.4,3.3L418.8,0z
		 M370.9,89.9l13,6.7l38.9-75.7l75.7,38.9l6.7-13L429.4,7.9l4.1-7.9h-1.7l-4.4,8.6l75.7,38.9l-5.3,10.2l-75.7-38.9l-38.9,75.7
		L373,89.3l38.9-75.7L385.5,0h-3.3l27.7,14.2L370.9,89.9z M545.7,97l33.5,17.2l38.9-75.7l75.7,38.9L711,43.9L635.3,5l2.5-5h-1.7
		l-2.9,5.6L709,44.5l-15.8,30.8l-75.7-38.9l-38.9,75.7l-30.8-15.8l38.9-75.7L546.6,0h-3.3l41.4,21.3L545.7,97z M114.6,832.6
		l17.2-33.5l-75.7-38.9l38.9-75.7l-33.5-17.2L22.6,743L0,731.4v1.7l23.2,11.9l38.9-75.7l30.8,15.8L54,760.9l75.7,38.9l-15.8,30.8
		l-75.7-38.9L0,866v3.3l38.9-75.7L114.6,832.6z M610.2,0h-1.7l-1.7,3.3L600.4,0H597l10.4,5.4L610.2,0z M180.6,87.9l13,6.7l38.9-75.7
		l75.7,38.9l6.7-13L239.1,5.9l3-5.9h-1.7L237,6.5l75.7,38.9l-5.3,10.2l-75.7-38.9l-38.9,75.7l-10.2-5.3l38.9-75.7L199.1,0h-3.3
		l23.7,12.2L180.6,87.9z M165,92.9l33.5,17.2l38.9-75.7l75.7,38.9l17.2-33.5L254.6,0.9L255,0h-1.7l-0.8,1.5l75.7,38.9l-15.8,30.8
		l-75.7-38.9L197.8,108l-30.8-15.8L206,16.5L173.8,0h-3.3l33.4,17.2L165,92.9z M720.5,104l54,27.7L813.4,56l75.7,38.9l27.7-54
		L841.2,2l1-2h-1.7l-1.4,2.7l75.7,38.9l-26.3,51.3L812.8,54l-38.9,75.7l-51.3-26.3l38.9-75.7L707.7,0h-3.3l55.1,28.3L720.5,104z
		 M339.8,99.9l54,27.7l38.9-75.7l75.7,38.9l27.7-54L464.5,0h-3.3l73,37.5l-26.3,51.3l-75.7-38.9l-38.9,75.7l-51.3-26.3l38.9-75.7
		L335,0h-3.3l47.1,24.2L339.8,99.9z M227.4,0h-3.1l2.5,1.3L227.4,0z M355.4,94.9l33.5,17.2l38.9-75.7l75.7,38.9l17.2-33.5L444.9,2.9
		l1.5-2.9h-1.7l-1.8,3.6l75.7,38.9l-15.8,30.8l-75.7-38.9l-38.9,75.7l-30.8-15.8l38.9-75.7L360.2,0h-3.3l37.4,19.2L355.4,94.9z
		 M801.6,0h-1.7l-2.7,5.4L786.7,0h-3.3l14.4,7.4L801.6,0z M993,0h-1.7l-3.8,7.4L973.1,0h-3.3l18.4,9.5L993,0z M1116.8,103.1
		l33.5,17.2l38.9-75.7l75.7,38.9l17.2-33.5l-75.7-38.9L1212,0h-1.7l-6,11.8l75.7,38.9l-15.8,30.8l-75.7-38.9l-38.9,75.7l-30.8-15.8
		l38.9-75.7L1105.6,0h-3.3l53.4,27.4L1116.8,103.1z M1101.2,108.1l54,27.7l38.9-75.7l75.7,38.9l27.7-54l-75.7-38.9L1225,0h-1.7
		l-3.5,6.8l75.7,38.9L1269.2,97l-75.7-38.9l-38.9,75.7l-51.3-26.3l38.9-75.7L1080.4,0h-3.3l63.1,32.4L1101.2,108.1z M1132.3,98.1
		l13,6.7l38.9-75.7l75.7,38.9l6.7-13l-75.7-38.9l8.3-16.1h-1.7l-8.6,16.8l75.7,38.9l-5.3,10.2L1183.5,27l-38.9,75.7l-10.2-5.3
		l38.9-75.7L1130.9,0h-3.3l43.6,22.4L1132.3,98.1z M1375.8,0h-1.7l-5.9,11.5L1345.8,0h-3.3l26.4,13.6L1375.8,0z M1184.4,0h-1.7
		l-4.9,9.4L1159.4,0h-3.3l22.4,11.5L1184.4,0z M751.6,94l13,6.7L803.4,25l75.7,38.9l6.7-13L810.1,12l6.2-12h-1.7L808,12.7l75.7,38.9
		l-5.3,10.2l-75.7-38.9l-38.9,75.7l-10.2-5.3l38.9-75.7L758.2,0h-3.3l35.7,18.3L751.6,94z M941.9,96.1l13,6.7L993.8,27l75.7,38.9
		l6.7-13l-75.7-38.9l7.2-14.1h-1.7l-7.6,14.7l75.7,38.9l-5.3,10.2L993.1,25l-38.9,75.7L944,95.4l38.9-75.7L944.5,0h-3.3l39.6,20.4
		L941.9,96.1z M149.5,97.9l54,27.7l38.9-75.7l75.7,38.9l27.7-54L278.1,0h-3.3l69,35.4l-26.3,51.3l-75.7-38.9l-38.9,75.7l-51.3-26.3
		l38.9-75.7L148.6,0h-3.3l43.1,22.1L149.5,97.9z M736.1,99l33.5,17.2l38.9-75.7l75.7,38.9l17.2-33.5L825.6,7l3.6-7h-1.7l-3.9,7.7
		l75.7,38.9l-15.8,30.8l-75.7-38.9l-38.9,75.7l-30.8-15.8L777,22.6L732.9,0h-3.3L775,23.3L736.1,99z M910.9,106.1l54,27.7l38.9-75.7
		l75.7,38.9l27.7-54l-75.7-38.9l2.1-4.1h-1.7l-2.4,4.7l75.7,38.9l-26.3,51.3L1003.1,56l-38.9,75.7l-51.3-26.3l38.9-75.7L894,0h-3.3
		l59.1,30.3L910.9,106.1z M926.4,101.1l33.5,17.2l38.9-75.7l75.7,38.9l17.2-33.5L1016,9.1l4.7-9.1h-1.7l-5,9.7l75.7,38.9l-15.8,30.8
		l-75.7-38.9l-38.9,75.7l-30.8-15.8l38.9-75.7L919.3,0h-3.3l49.4,25.3L926.4,101.1z M561.3,92l13,6.7l38.9-75.7l75.7,38.9l6.7-13
		L619.8,10l5.1-10h-1.7l-5.5,10.6l75.7,38.9l-5.3,10.2l-75.7-38.9l-38.9,75.7l-10.2-5.3l38.9-75.7L571.8,0h-3.3l31.7,16.3L561.3,92z
		 M111.6,626.7l6.7-13l-75.7-38.9l38.9-75.7l-13-6.7l-38.9,75.7L0,553v1.7l30.3,15.5l38.9-75.7l10.2,5.3l-38.9,75.7l75.7,38.9
		l-5.3,10.2l-75.7-38.9L0,654.4v3.3l35.9-69.9L111.6,626.7z M0,580.6v1.7l7.4,3.8L0,600.6v3.3l9.5-18.5L0,580.6z M0,567.7v1.7
		l23,11.8L0,625.9v3.3l25-48.7L0,567.7z M0,19.4v0.2V19.4L0,19.4z M43,413l75.7,38.9l17.2-33.5l-75.7-38.9L99,303.8l-33.5-17.2
		l-38.9,75.7L0,348.6v1.7l27.3,14l38.9-75.7L97,304.4l-38.9,75.7l75.7,38.9L118,449.8l-75.7-38.9L3.4,486.7L0,484.9v1.7l4.1,2.1
		L43,413z M113.7,436.4l6.7-13l-75.7-38.9l38.9-75.7l-13-6.7l-38.9,75.7L0,361.6v1.7l32.3,16.6l38.9-75.7l10.2,5.3l-38.9,75.7
		l75.7,38.9l-5.3,10.2l-75.7-38.9L0,468.1v3.3l38-73.9L113.7,436.4z M40.9,603.3l75.7,38.9l17.2-33.5l-75.7-38.9L97,494.1
		l-33.5-17.2l-38.9,75.7L0,540v1.7l25.3,13L64.2,479l30.8,15.8L56,570.5l75.7,38.9L116,640.2l-75.7-38.9L1.4,677L0,676.3v1.7l2,1
		L40.9,603.3z M0,759.1v1.7l20.9,10.7L0,812.2v3.3l23-44.7L0,759.1z M109.6,817l6.7-13l-75.7-38.9l38.9-75.7l-13-6.7l-38.9,75.7
		L0,744.4v1.7l28.2,14.5l38.9-75.7l10.2,5.3l-38.9,75.7l75.7,38.9l-5.3,10.2l-75.7-38.9L0,840.8v3.3l33.9-66L109.6,817z M45.9,618.9
		l75.7,38.9l27.7-54l-75.7-38.9l38.9-75.7l-54-27.7l-38.9,75.7L0,527.1v1.7l20.3,10.4l38.9-75.7l51.3,26.3l-38.9,75.7l75.7,38.9
		L121,655.7l-75.7-38.9L6.3,692.5L0,689.3v1.7l7,3.6L45.9,618.9z M0,772v1.7l5.4,2.8L0,787v3.3l7.4-14.5L0,772z M0,376.3v1.7
		l25,12.8L0,439.5v3.3l27.1-52.7L0,376.3z M47.9,428.5l75.7,38.9l27.7-54l-75.7-38.9l38.9-75.7l-54-27.7l-38.9,75.7L0,335.7v1.7
		l22.3,11.5l38.9-75.7l51.3,26.3l-38.9,75.7l75.7,38.9L123,465.4l-75.7-38.9L8.4,502.2L0,497.9v1.7l9.1,4.7L47.9,428.5z M1350,741.8
		l-75.7-38.9l-27.7,54l75.7,38.9l-38.9,75.7l54,27.7l38.9-75.7l23.7,12.2V834l-24.4-12.5l-38.9,75.7l-51.3-26.3l38.9-75.7
		l-75.7-38.9l26.3-51.3l75.7,38.9l38.9-75.7l10.4,5.4v-1.7l-11.1-5.7L1350,741.8z M47,32.3l75.7,38.9L140,37.7L66.5,0h-3.3
		l74.7,38.4l-15.8,30.8L46.4,30.2L7.5,106L0,102.1v1.7l8.2,4.2L47,32.3z M52,47.8l75.7,38.9l27.7-54L91.8,0h-3.3l65,33.4l-26.3,51.3
		L51.4,45.8l-38.9,75.7L0,115.1v1.7l13.2,6.8L52,47.8z M12.7,0H9.4l19.7,10.1L0,66.8v3.3L31.2,9.5L12.7,0z M0,6.4v1.7l13.6,7L0,41.5
		v3.3l15.6-30.4L0,6.4z M45,222.6l75.7,38.9l17.2-33.5l-75.7-38.9l38.9-75.7L67.6,96.2L28.7,172L0,157.2v1.7L29.4,174l38.9-75.7
		L99,114.1l-38.9,75.7l75.7,38.9l-15.8,30.8l-75.7-38.9L5.5,296.3L0,293.5v1.7l6.1,3.1L45,222.6z M0,389.2v1.7l9.5,4.9L0,414.3v3.3
		l11.5-22.5L0,389.2z M0,197.8v1.7l11.5,5.9L0,227.9v3.3l13.6-26.4L0,197.8z M50,238.2l75.7,38.9l27.7-54l-75.7-38.9l38.9-75.7
		l-54-27.7l-38.9,75.7L0,144.3v1.7l24.4,12.5l38.9-75.7l51.3,26.3l-38.9,75.7l75.7,38.9L125.1,275l-75.7-38.9l-38.9,75.7L0,306.5
		v1.7l11.1,5.7L50,238.2z M0,184.9v1.7l27.1,13.9L0,253.1v3.3l29.1-56.7L0,184.9z M40,207.1l75.7,38.9l6.7-13l-75.7-38.9l38.9-75.7
		l-13-6.7l-38.9,75.7L0,170.2v1.7l34.4,17.6l38.9-75.7l10.2,5.3l-38.9,75.7l75.7,38.9l-5.3,10.2l-75.7-38.9L0.5,280.8L0,280.6v1.7
		l1.1,0.6L40,207.1z M1027.4,384.8l38.9-75.7l-54-27.7L973.4,357l-75.7-38.9l-27.7,54l75.7,38.9l-38.9,75.7l54,27.7l38.9-75.7
		l75.7,38.9l27.7-54L1027.4,384.8z M1074.7,475.6L999,436.7l-38.9,75.7l-51.3-26.3l38.9-75.7L872,371.5l26.3-51.3l75.7,38.9
		l38.9-75.7l51.3,26.3l-38.9,75.7l75.7,38.9L1074.7,475.6z M1011.9,389.8l38.9-75.7l-33.5-17.2l-38.9,75.7l-75.7-38.9l-17.2,33.5
		l75.7,38.9l-38.9,75.7l33.5,17.2l38.9-75.7l75.7,38.9l17.2-33.5L1011.9,389.8z M1069.8,460.1L994,421.2l-38.9,75.7l-30.8-15.8
		l38.9-75.7l-75.7-38.9l15.8-30.8l75.7,38.9l38.9-75.7l30.8,15.8l-38.9,75.7l75.7,38.9L1069.8,460.1z M788.4,208.7l-38.9,75.7
		l13,6.7l38.9-75.7l75.7,38.9l6.7-13l-75.7-38.9l38.9-75.7l-13-6.7l-38.9,75.7l-75.7-38.9l-6.7,13L788.4,208.7z M720,158.9
		l75.7,38.9l38.9-75.7l10.2,5.3L806,203l75.7,38.9l-5.3,10.2l-75.7-38.9L761.8,289l-10.2-5.3l38.9-75.7l-75.7-38.9L720,158.9z
		 M1023.3,765.5l38.9-75.7l-54-27.7l-38.9,75.7l-75.7-38.9l-27.7,54l75.7,38.9l-38.9,75.7l54,27.7l38.9-75.7l75.7,38.9l27.7-54
		L1023.3,765.5z M1070.7,856.3l-75.7-38.9L956,893.1l-51.3-26.3l38.9-75.7l-75.7-38.9l26.3-51.3l75.7,38.9l38.9-75.7l51.3,26.3
		l-38.9,75.7L1097,805L1070.7,856.3z M1400,590.8v-1.7l-9.5-4.9l9.5-18.5v-3.3l-11.5,22.5L1400,590.8z M261.9,757.3l38.9-75.7
		l-54-27.7l-38.9,75.7l-75.7-38.9l-27.7,54l75.7,38.9l-38.9,75.7l54,27.7l38.9-75.7l75.7,38.9l27.7-54L261.9,757.3z M309.3,848.1
		l-75.7-38.9l-38.9,75.7l-51.3-26.3l38.9-75.7L106.5,744l26.3-51.3l75.7,38.9l38.9-75.7l51.3,26.3l-38.9,75.7l75.7,38.9L309.3,848.1
		z M772.9,213.6L734,289.4l33.5,17.2l38.9-75.7l75.7,38.9l17.2-33.5l-75.7-38.9l38.9-75.7L829,104.4l-38.9,75.7l-75.7-38.9
		l-17.2,33.5L772.9,213.6z M715,143.3l75.7,38.9l38.9-75.7l30.8,15.8L821.5,198l75.7,38.9l-15.8,30.8l-75.7-38.9l-38.9,75.7
		l-30.8-15.8L775,213l-75.7-38.9L715,143.3z M582.6,211.6l-38.9,75.7l33.5,17.2l38.9-75.7l75.7,38.9l17.2-33.5l-75.7-38.9l38.9-75.7
		l-33.5-17.2l-38.9,75.7L524,139.2l-17.2,33.5L582.6,211.6z M524.7,141.3l75.7,38.9l38.9-75.7l30.8,15.8L631.2,196l75.7,38.9
		l-15.8,30.8l-75.7-38.9l-38.9,75.7l-30.8-15.8l38.9-75.7l-75.7-38.9L524.7,141.3z M757.4,218.6l-38.9,75.7l54,27.7l38.9-75.7
		l75.7,38.9l27.7-54l-75.7-38.9l38.9-75.7l-54-27.7l-38.9,75.7l-75.7-38.9l-27.7,54L757.4,218.6z M710,127.8l75.7,38.9L824.7,91
		l51.3,26.3L837.1,193l75.7,38.9l-26.3,51.3l-75.7-38.9L771.8,320l-51.3-26.3l38.9-75.7l-75.7-38.9L710,127.8z M567,216.6
		l-38.9,75.7l54,27.7l38.9-75.7l75.7,38.9l27.7-54l-75.7-38.9l38.9-75.7l-54-27.7l-38.9,75.7L519,123.7l-27.7,54L567,216.6z
		 M519.7,125.8l75.7,38.9l38.9-75.7l51.3,26.3L646.7,191l75.7,38.9l-26.3,51.3l-75.7-38.9L581.5,318l-51.3-26.3l38.9-75.7L493.4,177
		L519.7,125.8z M598.1,206.6l-38.9,75.7l13,6.7l38.9-75.7l75.7,38.9l6.7-13l-75.7-38.9l38.9-75.7l-13-6.7l-38.9,75.7L529,154.8
		l-6.7,13L598.1,206.6z M529.7,156.8l75.7,38.9l38.9-75.7l10.2,5.3L615.6,201l75.7,38.9l-5.3,10.2l-75.7-38.9l-38.9,75.7l-10.2-5.3
		l38.9-75.7l-75.7-38.9L529.7,156.8z M992.3,775.4l38.9-75.7l-13-6.7l-38.9,75.7l-75.7-38.9l-6.7,13l75.7,38.9l-38.9,75.7l13,6.7
		l38.9-75.7l75.7,38.9l6.7-13L992.3,775.4z M1060.7,825.2l-75.7-38.9l-38.9,75.7l-10.2-5.3l38.9-75.7L899,742.2l5.3-10.2l75.7,38.9
		l38.9-75.7l10.2,5.3l-38.9,75.7l75.7,38.9L1060.7,825.2z M1009.8,580.1l38.9-75.7l-33.5-17.2l-38.9,75.7L900.6,524l-17.2,33.5
		l75.7,38.9l-38.9,75.7l33.5,17.2l38.9-75.7l75.7,38.9l17.2-33.5L1009.8,580.1z M1067.7,650.4L992,611.5l-38.9,75.7l-30.8-15.8
		l38.9-75.7l-75.7-38.9l15.8-30.8L977,565l38.9-75.7l30.8,15.8l-38.9,75.7l75.7,38.9L1067.7,650.4z M1149.5,598.4l-38.9,75.7
		l33.5,17.2l38.9-75.7l75.7,38.9l17.2-33.5l-75.7-38.9l38.9-75.7l-33.5-17.2l-38.9,75.7l-75.7-38.9l-17.2,33.5L1149.5,598.4z
		 M1091.6,528.1l75.7,38.9l38.9-75.7l30.8,15.8l-38.9,75.7l75.7,38.9l-15.8,30.8l-75.7-38.9l-38.9,75.7l-30.8-15.8l38.9-75.7
		l-75.7-38.9L1091.6,528.1z M883,666l27.7-54L835,573.1l38.9-75.7l-54-27.7L781,545.3l-75.7-38.9l-27.7,54l75.7,38.9l-38.9,75.7
		l54,27.7l38.9-75.7L883,666z M767.7,700.7l-51.3-26.3l38.9-75.7l-75.7-38.9l26.3-51.3l75.7,38.9l38.9-75.7l51.3,26.3L833,573.7
		l75.7,38.9l-26.3,51.3L806.6,625L767.7,700.7z M1163,783.8l-38.9,75.7l13,6.7l38.9-75.7l75.7,38.9l6.7-13l-75.7-38.9l38.9-75.7
		l-13-6.7l-38.9,75.7l-75.7-38.9l-6.7,13L1163,783.8z M1094.6,734l75.7,38.9l38.9-75.7l10.2,5.3l-38.9,75.7l75.7,38.9l-5.3,10.2
		l-75.7-38.9l-38.9,75.7l-10.2-5.3l38.9-75.7l-75.7-38.9L1094.6,734z M819.5,578.1l38.9-75.7l-33.5-17.2L786,560.9L710.3,522
		l-17.2,33.5l75.7,38.9l-38.9,75.7l33.5,17.2l38.9-75.7l75.7,38.9l17.2-33.5L819.5,578.1z M877.4,648.4l-75.7-38.9l-38.9,75.7
		L732,669.4l38.9-75.7l-75.7-38.9l15.8-30.8l75.7,38.9l38.9-75.7l30.8,15.8l-38.9,75.7l75.7,38.9L877.4,648.4z M994.3,585.1
		l38.9-75.7l-13-6.7l-38.9,75.7l-75.7-38.9l-6.7,13l75.7,38.9l-38.9,75.7l13,6.7l38.9-75.7l75.7,38.9l6.7-13L994.3,585.1z
		 M1062.7,634.9L987,596l-38.9,75.7l-10.2-5.3l38.9-75.7L901,551.8l5.3-10.2l75.7,38.9l38.9-75.7l10.2,5.3l-38.9,75.7l75.7,38.9
		L1062.7,634.9z M804,583l38.9-75.7l-13-6.7L791,576.4l-75.7-38.9l-6.7,13l75.7,38.9l-38.9,75.7l13,6.7l38.9-75.7l75.7,38.9l6.7-13
		L804,583z M872.4,632.8l-75.7-38.9l-38.9,75.7l-10.2-5.3l38.9-75.7l-75.7-38.9l5.3-10.2l75.7,38.9l38.9-75.7l10.2,5.3l-38.9,75.7
		l75.7,38.9L872.4,632.8z M1147.5,788.8l-38.9,75.7l33.5,17.2l38.9-75.7l75.7,38.9l17.2-33.5l-75.7-38.9l38.9-75.7l-33.5-17.2
		l-38.9,75.7l-75.7-38.9l-17.2,33.5L1147.5,788.8z M1089.6,718.5l75.7,38.9l38.9-75.7l30.8,15.8l-38.9,75.7l75.7,38.9l-15.8,30.8
		l-75.7-38.9l-38.9,75.7l-30.8-15.8l38.9-75.7l-75.7-38.9L1089.6,718.5z M996.3,394.7l38.9-75.7l-13-6.7l-38.9,75.7l-75.7-38.9
		l-6.7,13l75.7,38.9l-38.9,75.7l13,6.7l38.9-75.7l75.7,38.9l6.7-13L996.3,394.7z M1064.8,444.5L989,405.6l-38.9,75.7l-10.2-5.3
		l38.9-75.7l-75.7-38.9l5.3-10.2l75.7,38.9l38.9-75.7l10.2,5.3l-38.9,75.7l75.7,38.9L1064.8,444.5z M1083.9,700.9l-27.7,54
		l75.7,38.9l-38.9,75.7l54,27.7l38.9-75.7l75.7,38.9l27.7-54l-75.7-38.9l38.9-75.7l-54-27.7l-38.9,75.7L1083.9,700.9z M1199.2,666.1
		l51.3,26.3l-38.9,75.7l75.7,38.9l-26.3,51.3l-75.7-38.9l-38.9,75.7l-51.3-26.3l38.9-75.7l-75.7-38.9l26.3-51.3l75.7,38.9
		L1199.2,666.1z M1073.4,668l27.7-54l-75.7-38.9l38.9-75.7l-54-27.7l-38.9,75.7l-75.7-38.9l-27.7,54l75.7,38.9l-38.9,75.7l54,27.7
		l38.9-75.7L1073.4,668z M958.1,702.8l-51.3-26.3l38.9-75.7L870,561.8l26.3-51.3l75.7,38.9l38.9-75.7l51.3,26.3l-38.9,75.7
		l75.7,38.9l-26.3,51.3L997,627.1L958.1,702.8z M833,763.4l38.9-75.7l-54-27.7L779,735.7l-75.7-38.9l-27.7,54l75.7,38.9l-38.9,75.7
		l54,27.7l38.9-75.7l75.7,38.9l27.7-54L833,763.4z M880.3,854.2l-75.7-38.9l-38.9,75.7l-51.3-26.3l38.9-75.7l-75.7-38.9l26.3-51.3
		l75.7,38.9l38.9-75.7l51.3,26.3l-38.9,75.7l75.7,38.9L880.3,854.2z M1165,593.4l-38.9,75.7l13,6.7l38.9-75.7l75.7,38.9l6.7-13
		l-75.7-38.9l38.9-75.7l-13-6.7l-38.9,75.7l-75.7-38.9l-6.7,13L1165,593.4z M1096.6,543.7l75.7,38.9l38.9-75.7l10.2,5.3l-38.9,75.7
		l75.7,38.9l-5.3,10.2l-75.7-38.9l-38.9,75.7l-10.2-5.3l38.9-75.7l-75.7-38.9L1096.6,543.7z M452.3,759.3l38.9-75.7l-54-27.7
		l-38.9,75.7l-75.7-38.9l-27.7,54l75.7,38.9l-38.9,75.7l54,27.7l38.9-75.7l75.7,38.9l27.7-54L452.3,759.3z M499.6,850.1l-75.7-38.9
		L385,887l-51.3-26.3l38.9-75.7L296.9,746l26.3-51.3l75.7,38.9l38.9-75.7l51.3,26.3L450.2,760l75.7,38.9L499.6,850.1z M232.9,576.9
		l38.9-75.7l-13-6.7L220,570.2l-75.7-38.9l-6.7,13l75.7,38.9l-38.9,75.7l13,6.7l38.9-75.7l75.7,38.9l6.7-13L232.9,576.9z
		 M301.3,626.7l-75.7-38.9l-38.9,75.7l-10.2-5.3l38.9-75.7l-75.7-38.9l5.3-10.2l75.7,38.9l38.9-75.7l10.2,5.3l-38.9,75.7l75.7,38.9
		L301.3,626.7z M611.6,771.3l38.9-75.7l-13-6.7l-38.9,75.7l-75.7-38.9l-6.7,13l75.7,38.9l-38.9,75.7l13,6.7l38.9-75.7l75.7,38.9
		l6.7-13L611.6,771.3z M680,821.1l-75.7-38.9L565.4,858l-10.2-5.3L594,777l-75.7-38.9l5.3-10.2l75.7,38.9l38.9-75.7l10.2,5.3
		L609.5,772l75.7,38.9L680,821.1z M314,469.5l27.7-54L266,376.6l38.9-75.7l-54-27.7L212,348.8L136.3,310l-27.7,54l75.7,38.9
		l-38.9,75.7l54,27.7l38.9-75.7L314,469.5z M198.7,504.2l-51.3-26.3l38.9-75.7l-75.7-38.9L137,312l75.7,38.9l38.9-75.7l51.3,26.3
		L264,377.2l75.7,38.9l-26.3,51.3l-75.7-38.9L198.7,504.2z M248.4,571.9l38.9-75.7L253.9,479L215,554.7l-75.7-38.9L122,549.3
		l75.7,38.9l-38.9,75.7l33.5,17.2l38.9-75.7l75.7,38.9l17.2-33.5L248.4,571.9z M306.3,642.2l-75.7-38.9l-38.9,75.7l-30.8-15.8
		l38.9-75.7l-75.7-38.9l15.8-30.8l75.7,38.9l38.9-75.7l30.8,15.8l-38.9,75.7l75.7,38.9L306.3,642.2z M230.9,767.2l38.9-75.7l-13-6.7
		l-38.9,75.7l-75.7-38.9l-6.7,13l75.7,38.9l-38.9,75.7l13,6.7l38.9-75.7l75.7,38.9l6.7-13L230.9,767.2z M299.3,817l-75.7-38.9
		l-38.9,75.7l-10.2-5.3l38.9-75.7L137.6,734l5.3-10.2l75.7,38.9l38.9-75.7l10.2,5.3l-38.9,75.7l75.7,38.9L299.3,817z M312,659.8
		l27.7-54L264,566.9l38.9-75.7l-54-27.7L210,539.2l-75.7-38.9l-27.7,54l75.7,38.9l-38.9,75.7l54,27.7l38.9-75.7L312,659.8z
		 M196.7,694.6l-51.3-26.3l38.9-75.7l-75.7-38.9l26.3-51.3l75.7,38.9l38.9-75.7l51.3,26.3l-38.9,75.7l75.7,38.9l-26.3,51.3
		l-75.7-38.9L196.7,694.6z M421.2,769.3l38.9-75.7l-13-6.7l-38.9,75.7l-75.7-38.9l-6.7,13l75.7,38.9l-38.9,75.7l13,6.7l38.9-75.7
		l75.7,38.9l6.7-13L421.2,769.3z M489.6,819.1l-75.7-38.9L375,855.9l-10.2-5.3l38.9-75.7l-75.7-38.9l5.3-10.2l75.7,38.9l38.9-75.7
		l10.2,5.3L419.2,770l75.7,38.9L489.6,819.1z M246.4,762.3l38.9-75.7l-33.5-17.2l-38.9,75.7l-75.7-38.9L120,739.7l75.7,38.9
		l-38.9,75.7l33.5,17.2l38.9-75.7l75.7,38.9l17.2-33.5L246.4,762.3z M304.3,832.6l-75.7-38.9l-38.9,75.7l-30.8-15.8l38.9-75.7
		L122.1,739l15.8-30.8l75.7,38.9l38.9-75.7l30.8,15.8l-38.9,75.7l75.7,38.9L304.3,832.6z M250.5,381.6l38.9-75.7l-33.5-17.2
		L217,364.4l-75.7-38.9L124.1,359l75.7,38.9l-38.9,75.7l33.5,17.2l38.9-75.7l75.7,38.9l17.2-33.5L250.5,381.6z M308.4,451.9
		L232.6,413l-38.9,75.7L163,472.9l38.9-75.7l-75.7-38.9l15.8-30.8l75.7,38.9l38.9-75.7l30.8,15.8l-38.9,75.7l75.7,38.9L308.4,451.9z
		 M436.7,764.3l38.9-75.7l-33.5-17.2l-38.9,75.7l-75.7-38.9l-17.2,33.5l75.7,38.9l-38.9,75.7l33.5,17.2l38.9-75.7l75.7,38.9
		l17.2-33.5L436.7,764.3z M494.6,834.6l-75.7-38.9L380,871.5l-30.8-15.8l38.9-75.7L312.4,741l15.8-30.8l75.7,38.9l38.9-75.7
		l30.8,15.8L434.7,765l75.7,38.9L494.6,834.6z M316.1,279.1l27.7-54l-75.7-38.9l38.9-75.7l-54-27.7l-38.9,75.7l-75.7-38.9l-27.7,54
		l75.7,38.9l-38.9,75.7l54,27.7l38.9-75.7L316.1,279.1z M200.8,313.9l-51.3-26.3l38.9-75.7l-75.7-38.9l26.3-51.3l75.7,38.9
		l38.9-75.7l51.3,26.3L266,186.9l75.7,38.9l-26.3,51.3l-75.7-38.9L200.8,313.9z M376.7,214.5l-38.9,75.7l54,27.7l38.9-75.7
		l75.7,38.9l27.7-54l-75.7-38.9l38.9-75.7l-54-27.7l-38.9,75.7l-75.7-38.9l-27.7,54L376.7,214.5z M329.3,123.7l75.7,38.9L444,86.9
		l51.3,26.3l-38.9,75.7l75.7,38.9l-26.3,51.3L430,240.2l-38.9,75.7l-51.3-26.3l38.9-75.7L303,175L329.3,123.7z M235,386.6l38.9-75.7
		l-13-6.7L222,379.9L146.3,341l-6.7,13l75.7,38.9l-38.9,75.7l13,6.7l38.9-75.7l75.7,38.9l6.7-13L235,386.6z M303.4,436.3l-75.7-38.9
		l-38.9,75.7l-10.2-5.3l38.9-75.7l-75.7-38.9l5.3-10.2l75.7,38.9l38.9-75.7l10.2,5.3l-38.9,75.7l75.7,38.9L303.4,436.3z
		 M801.9,773.4l38.9-75.7l-13-6.7l-38.9,75.7l-75.7-38.9l-6.7,13l75.7,38.9l-38.9,75.7l13,6.7l38.9-75.7l75.7,38.9l6.7-13
		L801.9,773.4z M870.3,823.2l-75.7-38.9L755.7,860l-10.2-5.3l38.9-75.7l-75.7-38.9l5.3-10.2l75.7,38.9l38.9-75.7l10.2,5.3
		l-38.9,75.7l75.7,38.9L870.3,823.2z M392.2,209.6l-38.9,75.7l33.5,17.2l38.9-75.7l75.7,38.9l17.2-33.5l-75.7-38.9l38.9-75.7
		l-33.5-17.2l-38.9,75.7l-75.7-38.9l-17.2,33.5L392.2,209.6z M334.3,139.2l75.7,38.9l38.9-75.7l30.8,15.8l-38.9,75.7l75.7,38.9
		l-15.8,30.8L425,224.7l-38.9,75.7l-30.8-15.8l38.9-75.7L318.5,170L334.3,139.2z M817.4,768.4l38.9-75.7l-33.5-17.2L784,751.2
		l-75.7-38.9L691,745.8l75.7,38.9l-38.9,75.7l33.5,17.2l38.9-75.7l75.7,38.9l17.2-33.5L817.4,768.4z M875.3,838.7l-75.7-38.9
		l-38.9,75.7l-30.8-15.8l38.9-75.7l-75.7-38.9l15.8-30.8l75.7,38.9l38.9-75.7l30.8,15.8l-38.9,75.7l75.7,38.9L875.3,838.7z
		 M237,196.2l38.9-75.7l-13-6.7l-38.9,75.7l-75.7-38.9l-6.7,13l75.7,38.9l-38.9,75.7l13,6.7l38.9-75.7l75.7,38.9l6.7-13L237,196.2z
		 M305.4,246l-75.7-38.9l-38.9,75.7l-10.2-5.3l38.9-75.7L143.7,163l5.3-10.2l75.7,38.9l38.9-75.7l10.2,5.3L235,196.9l75.7,38.9
		L305.4,246z M252.5,191.2l38.9-75.7l-33.5-17.2L219.1,174l-75.7-38.9l-17.2,33.5l75.7,38.9L163,283.2l33.5,17.2l38.9-75.7
		l75.7,38.9l17.2-33.5L252.5,191.2z M310.4,261.5l-75.7-38.9l-38.9,75.7L165,282.6l38.9-75.7L128.2,168l15.8-30.8l75.7,38.9
		l38.9-75.7l30.8,15.8l-38.9,75.7l75.7,38.9L310.4,261.5z M627.1,766.4l38.9-75.7l-33.5-17.2l-38.9,75.7l-75.7-38.9l-17.2,33.5
		l75.7,38.9l-38.9,75.7l33.5,17.2l38.9-75.7l75.7,38.9l17.2-33.5L627.1,766.4z M685,836.7l-75.7-38.9l-38.9,75.7l-30.8-15.8
		l38.9-75.7l-75.7-38.9l15.8-30.8l75.7,38.9l38.9-75.7l30.8,15.8L625,767l75.7,38.9L685,836.7z M407.7,204.6l-38.9,75.7l13,6.7
		l38.9-75.7l75.7,38.9l6.7-13l-75.7-38.9l38.9-75.7l-13-6.7l-38.9,75.7l-75.7-38.9l-6.7,13L407.7,204.6z M339.3,154.8l75.7,38.9
		l38.9-75.7l10.2,5.3l-38.9,75.7l75.7,38.9l-5.3,10.2L420,209.2l-38.9,75.7l-10.2-5.3l38.9-75.7L334.1,165L339.3,154.8z
		 M642.6,761.4l38.9-75.7l-54-27.7l-38.9,75.7l-75.7-38.9l-27.7,54l75.7,38.9L522,863.4l54,27.7l38.9-75.7l75.7,38.9l27.7-54
		L642.6,761.4z M690,852.2l-75.7-38.9L575.3,889l-51.3-26.3l38.9-75.7l-75.7-38.9l26.3-51.3l75.7,38.9l38.9-75.7l51.3,26.3
		L640.6,762l75.7,38.9L690,852.2z M1007.8,770.4l38.9-75.7l-33.5-17.2l-38.9,75.7l-75.7-38.9l-17.2,33.5l75.7,38.9l-38.9,75.7
		l33.5,17.2l38.9-75.7l75.7,38.9l17.2-33.5L1007.8,770.4z M1065.7,840.8l-75.7-38.9L951,877.6l-30.8-15.8l38.9-75.7l-75.7-38.9
		l15.8-30.8l75.7,38.9l38.9-75.7l30.8,15.8l-38.9,75.7l75.7,38.9L1065.7,840.8z M978.8,210.7l-38.9,75.7l13,6.7l38.9-75.7l75.7,38.9
		l6.7-13l-75.7-38.9l38.9-75.7l-13-6.7l-38.9,75.7l-75.7-38.9l-6.7,13L978.8,210.7z M910.4,160.9l75.7,38.9l38.9-75.7l10.2,5.3
		l-38.9,75.7l75.7,38.9l-5.3,10.2l-75.7-38.9L952.2,291l-10.2-5.3l38.9-75.7l-75.7-38.9L910.4,160.9z M1400,3.3l-5.4,10.5l5.4,2.8
		v-1.7l-3.3-1.7l3.3-6.5V3.3z M1356.1,170.8l-75.7-38.9l-27.7,54l75.7,38.9l-38.9,75.7l54,27.7l38.9-75.7l17.6,9v-1.7l-18.2-9.4
		l-38.9,75.7l-51.3-26.3l38.9-75.7l-75.7-38.9l26.3-51.3l75.7,38.9l38.9-75.7l4.3,2.2v-1.7l-5-2.5L1356.1,170.8z M1400,220.9v-1.7
		l-20.9-10.7l20.9-40.7v-3.3l-23,44.7L1400,220.9z M1290.4,163l-6.7,13l75.7,38.9l-38.9,75.7l13,6.7l38.9-75.7l27.6,14.2v-1.7
		l-28.2-14.5l-38.9,75.7l-10.2-5.3l38.9-75.7l-75.7-38.9l5.3-10.2l75.7,38.9l33.2-64.7v-3.3l-33.9,66L1290.4,163z M1285.4,147.4
		l-17.2,33.5l75.7,38.9l-38.9,75.7l33.5,17.2l38.9-75.7l22.6,11.6v-1.7l-23.2-11.9l-38.9,75.7l-30.8-15.8l38.9-75.7l-75.7-38.9
		l15.8-30.8l75.7,38.9L1400,114v-3.3l-38.9,75.7L1285.4,147.4z M963.3,215.7l-38.9,75.7l33.5,17.2l38.9-75.7l75.7,38.9l17.2-33.5
		l-75.7-38.9l38.9-75.7l-33.5-17.2l-38.9,75.7l-75.7-38.9l-17.2,33.5L963.3,215.7z M905.4,145.4l75.7,38.9l38.9-75.7l30.8,15.8
		l-38.9,75.7l75.7,38.9l-15.8,30.8l-75.7-38.9l-38.9,75.7l-30.8-15.8l38.9-75.7l-75.7-38.9L905.4,145.4z M1334.9,104.8l-10.2-5.3
		l38.9-75.7L1317.3,0h-3.3l47.6,24.5l-38.9,75.7l13,6.7l38.9-75.7l25.5,13.1v-1.7l-26.2-13.4L1334.9,104.8z M1339.9,120.3
		l-30.8-15.8l38.9-75.7L1292,0h-3.3l57.3,29.4l-38.9,75.7l33.5,17.2l38.9-75.7l20.5,10.5v-1.7l-21.2-10.9L1339.9,120.3z
		 M947.7,220.7l-38.9,75.7l54,27.7l38.9-75.7l75.7,38.9l27.7-54l-75.7-38.9l38.9-75.7l-54-27.7l-38.9,75.7l-75.7-38.9l-27.7,54
		L947.7,220.7z M900.4,129.9l75.7,38.9L1015,93l51.3,26.3l-38.9,75.7l75.7,38.9l-26.3,51.3l-75.7-38.9l-38.9,75.7l-51.3-26.3
		l38.9-75.7l-75.7-38.9L900.4,129.9z M1390.5,0h-1.7l-9.7,18.8l20.9,10.7v-1.7l-18.9-9.7L1390.5,0z M1288.4,353.3l-6.7,13l75.7,38.9
		l-38.9,75.7l13,6.7l38.9-75.7L1400,427v-1.7l-30.3-15.5l-38.9,75.7l-10.2-5.3l38.9-75.7l-75.7-38.9l5.3-10.2l75.7,38.9l35.3-68.7
		v-3.3l-35.9,69.9L1288.4,353.3z M1357,567l-75.7-38.9l-17.2,33.5l75.7,38.9l-38.9,75.7l33.5,17.2l38.9-75.7l26.7,13.7v-1.7
		l-27.3-14l-38.9,75.7l-30.8-15.8l38.9-75.7l-75.7-38.9l15.8-30.8l75.7,38.9l38.9-75.7l3.4,1.7v-1.7l-4.1-2.1L1357,567z
		 M1352.1,551.5l-75.7-38.9l-27.7,54l75.7,38.9l-38.9,75.7l54,27.7l38.9-75.7l21.7,11.1v-1.7l-22.3-11.5l-38.9,75.7l-51.3-26.3
		l38.9-75.7l-75.7-38.9l26.3-51.3l75.7,38.9l38.9-75.7l8.4,4.3v-1.7l-9.1-4.7L1352.1,551.5z M1400,603.7V602l-25-12.8l25-48.7v-3.3
		l-27.1,52.7L1400,603.7z M692.7,663.9l27.7-54L644.7,571l38.9-75.7l-54-27.7l-38.9,75.7l-75.7-38.9l-27.7,54l75.7,38.9L524,673
		l54,27.7l38.9-75.7L692.7,663.9z M577.4,698.7l-51.3-26.3l38.9-75.7l-75.7-38.9l26.3-51.3l75.7,38.9l38.9-75.7l51.3,26.3
		l-38.9,75.7l75.7,38.9L692,661.8L616.3,623L577.4,698.7z M1400,399.4v-1.7l-7.4-3.8l7.4-14.5V376l-9.5,18.5L1400,399.4z
		 M1359.1,376.7l-75.7-38.9l-17.2,33.5l75.7,38.9l-38.9,75.7l33.5,17.2l38.9-75.7L1400,440v-1.7l-25.3-13l-38.9,75.7l-30.8-15.8
		l38.9-75.7l-75.7-38.9l15.8-30.8l75.7,38.9l38.9-75.7l1.4,0.7V302l-2-1L1359.1,376.7z M1354.1,361.1l-75.7-38.9l-27.7,54l75.7,38.9
		l-38.9,75.7l54,27.7l38.9-75.7l19.6,10.1v-1.7l-20.3-10.4l-38.9,75.7l-51.3-26.3l38.9-75.7l-75.7-38.9l26.3-51.3l75.7,38.9
		l38.9-75.7l6.3,3.3V289l-7-3.6L1354.1,361.1z M1400,412.3v-1.7l-23-11.8l23-44.7v-3.3l-25,48.7L1400,412.3z M1400,208v-1.7
		l-5.4-2.8l5.4-10.5v-3.3l-7.4,14.5L1400,208z M596,397l-38.9,75.7l13,6.7l38.9-75.7l75.7,38.9l6.7-13l-75.7-38.9l38.9-75.7l-13-6.7
		L602.7,384L527,345.1l-6.7,13L596,397z M527.6,347.2l75.7,38.9l38.9-75.7l10.2,5.3l-38.9,75.7l75.7,38.9l-5.3,10.2l-75.7-38.9
		l-38.9,75.7l-10.2-5.3l38.9-75.7l-75.7-38.9L527.6,347.2z M1286.3,543.6l-6.7,13l75.7,38.9l-38.9,75.7l13,6.7l38.9-75.7l31.7,16.3
		v-1.7l-32.3-16.6l-38.9,75.7l-10.2-5.3l38.9-75.7l-75.7-38.9l5.3-10.2l75.7,38.9l37.3-72.6v-3.3l-38,73.9L1286.3,543.6z
		 M1151.6,408.1l-38.9,75.7l33.5,17.2l38.9-75.7l75.7,38.9l17.2-33.5l-75.7-38.9l38.9-75.7l-33.5-17.2l-38.9,75.7l-75.7-38.9
		l-17.2,33.5L1151.6,408.1z M1093.7,337.8l75.7,38.9l38.9-75.7l30.8,15.8l-38.9,75.7l75.7,38.9l-15.8,30.8l-75.7-38.9l-38.9,75.7
		l-30.8-15.8l38.9-75.7l-75.7-38.9L1093.7,337.8z M403.6,585.3L364.8,661l13,6.7l38.9-75.7l75.7,38.9l6.7-13l-75.7-38.9l38.9-75.7
		l-13-6.7l-38.9,75.7l-75.7-38.9l-6.7,13L403.6,585.3z M335.2,535.5l75.7,38.9l38.9-75.7l10.2,5.3l-38.9,75.7l75.7,38.9l-5.3,10.2
		l-75.7-38.9l-38.9,75.7l-10.2-5.3l38.9-75.7L330,545.7L335.2,535.5z M390.2,399.9l-38.9,75.7l33.5,17.2l38.9-75.7l75.7,38.9
		l17.2-33.5l-75.7-38.9l38.9-75.7l-33.5-17.2l-38.9,75.7l-75.7-38.9L314.4,361L390.2,399.9z M332.3,329.6l75.7,38.9l38.9-75.7
		l30.8,15.8l-38.9,75.7l75.7,38.9l-15.8,30.8L423,415l-38.9,75.7L353.3,475l38.9-75.7l-75.7-38.9L332.3,329.6z M326.6,312l-27.7,54
		l75.7,38.9l-38.9,75.7l54,27.7l38.9-75.7l75.7,38.9l27.7-54l-75.7-38.9l38.9-75.7l-54-27.7l-38.9,75.7L326.6,312z M441.9,277.2
		l51.3,26.3l-38.9,75.7l75.7,38.9l-26.3,51.3L428,430.6l-38.9,75.7L337.8,480l38.9-75.7L301,365.3l26.3-51.3l75.7,38.9L441.9,277.2z
		 M388.1,590.2L349.2,666l33.5,17.2l38.9-75.7l75.7,38.9l17.2-33.5L438.8,574l38.9-75.7L444.2,481l-38.9,75.7l-75.7-38.9l-17.2,33.5
		L388.1,590.2z M330.2,519.9l75.7,38.9l38.9-75.7l30.8,15.8l-38.9,75.7l75.7,38.9l-15.8,30.8l-75.7-38.9l-38.9,75.7l-30.8-15.8
		l38.9-75.7l-75.7-38.9L330.2,519.9z M1088,320.2l-27.7,54l75.7,38.9l-38.9,75.7l54,27.7l38.9-75.7l75.7,38.9l27.7-54l-75.7-38.9
		l38.9-75.7l-54-27.7l-38.9,75.7L1088,320.2z M1203.3,285.4l51.3,26.3l-38.9,75.7l75.7,38.9l-26.3,51.3l-75.7-38.9l-38.9,75.7
		l-51.3-26.3l38.9-75.7l-75.7-38.9l26.3-51.3l75.7,38.9L1203.3,285.4z M629.1,576l38.9-75.7l-33.5-17.2l-38.9,75.7l-75.7-38.9
		l-17.2,33.5l75.7,38.9L539.6,668l33.5,17.2l38.9-75.7l75.7,38.9l17.2-33.5L629.1,576z M687,646.3l-75.7-38.9l-38.9,75.7l-30.8-15.8
		l38.9-75.7l-75.7-38.9l15.8-30.8l75.7,38.9l38.9-75.7l30.8,15.8l-38.9,75.7l75.7,38.9L687,646.3z M1086,510.5l-27.7,54l75.7,38.9
		l-38.9,75.7l54,27.7l38.9-75.7l75.7,38.9l27.7-54l-75.7-38.9l38.9-75.7l-54-27.7l-38.9,75.7L1086,510.5z M1201.3,475.8l51.3,26.3
		l-38.9,75.7l75.7,38.9L1263,668l-75.7-38.9l-38.9,75.7l-51.3-26.3l38.9-75.7l-75.7-38.9l26.3-51.3l75.7,38.9L1201.3,475.8z
		 M372.6,595.2L333.7,671l54,27.7l38.9-75.7l75.7,38.9l27.7-54L454.3,569l38.9-75.7l-54-27.7l-38.9,75.7l-75.7-38.9l-27.7,54
		L372.6,595.2z M325.3,504.4l75.7,38.9l38.9-75.7l51.3,26.3l-38.9,75.7l75.7,38.9l-26.3,51.3l-75.7-38.9L387,696.6l-51.3-26.3
		l38.9-75.7l-75.7-38.9L325.3,504.4z M1344.9,135.8l-51.3-26.3l38.9-75.7L1266.8,0h-3.3l67.1,34.4l-38.9,75.7l54,27.7l38.9-75.7
		l15.5,8v-1.7l-16.2-8.3L1344.9,135.8z M613.6,581l38.9-75.7l-13-6.7l-38.9,75.7l-75.7-38.9l-6.7,13l75.7,38.9L555.1,663l13,6.7
		L607,594l75.7,38.9l6.7-13L613.6,581z M682,630.8l-75.7-38.9l-38.9,75.7l-10.2-5.3l38.9-75.7l-75.7-38.9l5.3-10.2l75.7,38.9
		l38.9-75.7l10.2,5.3l-38.9,75.7l75.7,38.9L682,630.8z M1167.1,403.1l-38.9,75.7l13,6.7l38.9-75.7l75.7,38.9l6.7-13l-75.7-38.9
		l38.9-75.7l-13-6.7l-38.9,75.7l-75.7-38.9l-6.7,13L1167.1,403.1z M1098.7,353.3l75.7,38.9l38.9-75.7l10.2,5.3l-38.9,75.7l75.7,38.9
		l-5.3,10.2l-75.7-38.9l-38.9,75.7l-10.2-5.3l38.9-75.7l-75.7-38.9L1098.7,353.3z M517,314l-27.7,54l75.7,38.9l-38.9,75.7l54,27.7
		l38.9-75.7l75.7,38.9l27.7-54l-75.7-38.9l38.9-75.7l-54-27.7l-38.9,75.7L517,314z M632.3,279.3l51.3,26.3l-38.9,75.7l75.7,38.9
		l-26.3,51.3l-75.7-38.9l-38.9,75.7L528.2,482l38.9-75.7l-75.7-38.9l26.3-51.3l75.7,38.9L632.3,279.3z M747.5,474.7l13,6.7
		l38.9-75.7l75.7,38.9l6.7-13L806,392.7l38.9-75.7l-13-6.7L793,386l-75.7-38.9l-6.7,13l75.7,38.9L747.5,474.7z M712.7,359.5
		l5.3-10.2l75.7,38.9l38.9-75.7l10.2,5.3l-38.9,75.7l75.7,38.9l-5.3,10.2l-75.7-38.9l-38.9,75.7l-10.2-5.3l38.9-75.7L712.7,359.5z
		 M405.7,394.9l-38.9,75.7l13,6.7l38.9-75.7l75.7,38.9l6.7-13l-75.7-38.9l38.9-75.7l-13-6.7l-38.9,75.7l-75.7-38.9l-6.7,13
		L405.7,394.9z M337.3,345.1L413,384l38.9-75.7l10.2,5.3l-38.9,75.7l75.7,38.9l-5.3,10.2L418,399.5l-38.9,75.7l-10.2-5.3l38.9-75.7
		L332,355.4L337.3,345.1z M1350.5,153.3l-74.4-38.2l38.9-75.7l-75.7-38.9l0.3-0.5h-1.7l-0.6,1.2l75.7,38.9l-38.2,74.4l-75.7-38.9
		l-38.9,75.7l-74.4-38.2l38.9-75.7L1052,0h-3.3l74,38l-38.2,74.4l-75.7-38.9l-38.9,75.7l-48-24.7L895.5,111l38.9-75.7L865.6,0h-3.3
		l70,36l-38.2,74.4l-75.7-38.9l-38.9,75.7L705.1,109L744,33.2L679.3,0h-3.3l66,33.9l-38.2,74.4L628,69.4l-38.9,75.7l-74.4-38.2
		l38.9-75.7L492.9,0h-3.3l62,31.9l-38.2,74.4l-75.7-38.9l-38.9,75.7l-74.4-38.2l38.9-75.7L306.6,0h-3.3l58.1,29.8l-38.2,74.4
		l-75.7-38.9L208.5,141l-74.4-38.2L173,27.1L120.2,0h-3.3l54.1,27.8l-38.2,74.4L57,63.2L18.1,139L0,129.7v1.7l18.8,9.6l38.9-75.7
		l74.4,38.2l-38.9,75.7l75.7,38.9l-38.2,74.4l-75.7-38.9l-38.9,75.7L0,321.1v1.7l16.7,8.6l38.9-75.7l74.4,38.2l-38.9,75.7l75.7,38.9
		l-38.2,74.4l-75.7-38.9L14,519.7l-14-7.2v1.7l14.7,7.5L53.6,446l74.4,38.2L89,559.9l75.7,38.9l-38.2,74.4l-75.7-38.9L12,710
		l-12-6.1v1.7l12.6,6.5l38.9-75.7l74.4,38.2L87,750.3l75.7,38.9l-38.2,74.4l-75.7-38.9L9.9,900.4L0,895.3v1.7l10.6,5.4l38.9-75.7
		l74.4,38.2l-38.9,75.7l75.7,38.9l-0.3,0.5h1.7l0.6-1.2L87,939.9l38.2-74.4l75.7,38.9l38.9-75.7l74.4,38.2l-38.9,75.7L348,980h3.3
		l-74-38l38.2-74.4l75.7,38.9l38.9-75.7l74.4,38.2l-38.9,75.7l68.7,35.3h3.3l-70-36l38.2-74.4l75.7,38.9l38.9-75.7l74.4,38.2
		L656,946.8l64.7,33.2h3.3l-66-33.9l38.2-74.4l75.7,38.9l38.9-75.7l74.4,38.2l-38.9,75.7l60.8,31.2h3.3l-62-31.9l38.2-74.4
		l75.7,38.9l38.9-75.7l74.4,38.2l-38.9,75.7l56.8,29.2h3.3l-58.1-29.8l38.2-74.4l75.7,38.9l38.9-75.7l74.4,38.2l-38.9,75.7
		l52.8,27.1h3.3l-54.1-27.8l38.2-74.4l75.7,38.9l38.9-75.7l18.1,9.3v-1.7l-18.8-9.6l-38.9,75.7l-74.4-38.2l38.9-75.7l-75.7-38.9
		l38.2-74.4l75.7,38.9l38.9-75.7l16.1,8.2v-1.7l-16.7-8.6l-38.9,75.7l-74.4-38.2l38.9-75.7l-75.7-38.9l38.2-74.4l75.7,38.9
		l38.9-75.7l14,7.2v-1.7l-14.7-7.5l-38.9,75.7l-74.4-38.2l38.9-75.7l-75.7-38.9l38.2-74.4l75.7,38.9L1388,270l12,6.1v-1.7l-12.6-6.5
		l-38.9,75.7l-74.4-38.2l38.9-75.7l-75.7-38.9l38.2-74.4l75.7,38.9l38.9-75.7l9.9,5.1V83l-10.6-5.4L1350.5,153.3z M894.8,112.4
		l75.7,38.9l38.9-75.7l74.4,38.2l-38.9,75.7l75.7,38.9l-38.2,74.4l-75.7-38.9l-38.9,75.7l-74.4-38.2l38.9-75.7l-75.7-38.9
		L894.8,112.4z M662.1,375.7l75.7,38.9L699.7,489l-75.7-38.9l-38.9,75.7l-74.4-38.2l38.9-75.7L473.8,373l38.2-74.4l75.7,38.9
		l38.9-75.7L701,300L662.1,375.7z M702.4,300.7l75.7,38.9l38.9-75.7l74.4,38.2l-38.9,75.7l75.7,38.9L890,491l-75.7-38.9l-38.9,75.7
		L701,489.7l38.9-75.7l-75.7-38.9L702.4,300.7z M471.8,373.7l75.7,38.9l-38.2,74.4L433.6,448l-38.9,75.7l-74.4-38.2l38.9-75.7
		L283.5,371l38.2-74.4l75.7,38.9l38.9-75.7l74.4,38.2L471.8,373.7z M395.4,525.8l38.9-75.7l74.4,38.2L469.7,564l75.7,38.9
		l-38.2,74.4l-75.7-38.9l-38.9,75.7l-74.4-38.2l38.9-75.7l-75.7-38.9l38.2-74.4L395.4,525.8z M547.5,602.2l-75.7-38.9L510,489
		l75.7,38.9l38.9-75.7l74.4,38.2l-38.9,75.7l75.7,38.9l-38.2,74.4l-75.7-38.9L583,716.2L508.6,678L547.5,602.2z M737.9,604.3
		l-75.7-38.9l38.2-74.4l75.7,38.9l38.9-75.7l74.4,38.2l-38.9,75.7l75.7,38.9L888,681.4l-75.7-38.9l-38.9,75.7L699,680L737.9,604.3z
		 M928.2,606.3l-75.7-38.9l38.2-74.4l75.7,38.9l38.9-75.7l74.4,38.2l-38.9,75.7l75.7,38.9l-38.2,74.4l-75.7-38.9l-38.9,75.7
		l-74.4-38.2L928.2,606.3z M1004.6,454.2l-38.9,75.7l-74.4-38.2l38.9-75.7l-75.7-38.9l38.2-74.4l75.7,38.9l38.9-75.7l74.4,38.2
		l-38.9,75.7l75.7,38.9l-38.2,74.4L1004.6,454.2z M704.4,110.3l75.7,38.9L819,73.5l74.4,38.2l-38.9,75.7l75.7,38.9l-38.2,74.4
		l-75.7-38.9l-38.9,75.7l-74.4-38.2l38.9-75.7l-75.7-38.9L704.4,110.3z M514.1,108.3l75.7,38.9l38.9-75.7l74.4,38.2l-38.9,75.7
		l75.7,38.9l-38.2,74.4L626,259.7l-38.9,75.7l-74.4-38.2l38.9-75.7l-75.7-38.9L514.1,108.3z M323.7,106.2L323.7,106.2L323.7,106.2
		l75.7,38.9l38.9-75.7l74.4,38.2l-38.9,75.7l75.7,38.9l-38.2,74.4l-75.7-38.9l-38.9,75.7l-74.4-38.2l38.9-75.7l-75.7-38.9
		L323.7,106.2z M170.9,217.4l-75.7-38.9l38.2-74.4l75.7,38.9L248,67.4l74.4,38.2l-38.9,75.7l75.7,38.9L321,294.5l-75.7-38.9
		l-38.9,75.7L132,293.2L170.9,217.4z M168.9,407.8l-75.7-38.9l38.2-74.4l75.7,38.9l38.9-75.7l74.4,38.2l-38.9,75.7l75.7,38.9
		L319,484.9L243.2,446l-38.9,75.7L130,483.5L168.9,407.8z M166.8,598.1l-75.7-38.9l38.2-74.4l75.7,38.9l38.9-75.7l74.4,38.2
		L279.4,562l75.7,38.9l-38.2,74.4l-75.7-38.9l-38.9,75.7l-74.4-38.2L166.8,598.1z M314.9,865.6l-75.7-38.9l-38.9,75.7l-74.4-38.2
		l38.9-75.7l-75.7-38.9l38.2-74.4l75.7,38.9l38.9-75.7l74.4,38.2l-38.9,75.7l75.7,38.9L314.9,865.6z M505.2,867.6l-75.7-38.9
		l-38.9,75.7l-74.4-38.2l38.9-75.7l-75.7-38.9l38.2-74.4l75.7,38.9l38.9-75.7l74.4,38.2l-38.9,75.7l75.7,38.9L505.2,867.6z
		 M695.6,869.7l-75.7-38.9L581,906.5l-74.4-38.2l38.9-75.7l-75.7-38.9l38.2-74.4l75.7,38.9l38.9-75.7l74.4,38.2L658,756.4l75.7,38.9
		L695.6,869.7z M885.9,871.7l-75.7-38.9l-38.9,75.7l-74.4-38.2l38.9-75.7l-75.7-38.9l38.2-74.4l75.7,38.9l38.9-75.7l74.4,38.2
		l-38.9,75.7l75.7,38.9L885.9,871.7z M1076.3,873.8l-75.7-38.9l-38.9,75.7l-74.4-38.2l38.9-75.7l-75.7-38.9l38.2-74.4l75.7,38.9
		l38.9-75.7l74.4,38.2l-38.9,75.7l75.7,38.9L1076.3,873.8z M1229.1,762.5l75.7,38.9l-38.2,74.4l-75.7-38.9l-38.9,75.7l-74.4-38.2
		l38.9-75.7l-75.7-38.9l38.2-74.4l75.7,38.9l38.9-75.7l74.4,38.2L1229.1,762.5z M1231.1,572.2l75.7,38.9l-38.2,74.4l-75.7-38.9
		l-38.9,75.7l-74.4-38.2l38.9-75.7l-75.7-38.9l38.2-74.4l75.7,38.9l38.9-75.7l74.4,38.2L1231.1,572.2z M1233.2,381.9l75.7,38.9
		l-38.2,74.4l-75.7-38.9l-38.9,75.7l-74.4-38.2l38.9-75.7l-75.7-38.9l38.2-74.4l0,0l0,0l75.7,38.9l38.9-75.7l74.4,38.2L1233.2,381.9
		z M1235.2,191.5l75.7,38.9l-24.7,48l-13.5,26.3l-75.7-38.9l-38.9,75.7l-74.4-38.2l38.9-75.7l-75.7-38.9l38.2-74.4l75.7,38.9
		l38.9-75.7l74.4,38.2L1235.2,191.5z M580.5,401.9l-38.9,75.7l33.5,17.2l38.9-75.7l75.7,38.9l17.2-33.5l-75.7-38.9l38.9-75.7
		l-33.5-17.2l-38.9,75.7L522,329.6l-17.2,33.5L580.5,401.9z M522.6,331.6l75.7,38.9l38.9-75.7l30.8,15.8l-38.9,75.7l75.7,38.9
		L689.1,456l-75.7-38.9l-38.9,75.7L543.7,477l38.9-75.7l-75.7-38.9L522.6,331.6z M1090.1,129.8l-27.7,54l75.7,38.9l-38.9,75.7
		l54,27.7l38.9-75.7l75.7,38.9l27.7-54l-75.7-38.9l38.9-75.7l-54-27.7l-38.9,75.7L1090.1,129.8z M1205.4,95.1l51.3,26.3l-38.9,75.7
		l75.7,38.9l-26.3,51.3l-75.7-38.9l-38.9,75.7l-51.3-26.3l38.9-75.7l-75.7-38.9l26.3-51.3l75.7,38.9L1205.4,95.1z M716.4,484.7
		l54,27.7l38.9-75.7l75.7,38.9l27.7-54l-75.7-38.9L876,307l-54-27.7L783.1,355l-75.7-38.9l-27.7,54l75.7,38.9L716.4,484.7z
		 M681.7,369.4l26.3-51.3l75.7,38.9l38.9-75.7l51.3,26.3L835,383.4l75.7,38.9l-26.3,51.3l-75.7-38.9l-38.9,75.7l-51.3-26.3
		l38.9-75.7L681.7,369.4z M732,479.7l33.5,17.2l38.9-75.7l75.7,38.9l17.2-33.5l-75.7-38.9l38.9-75.7l-33.5-17.2l-38.9,75.7
		l-75.7-38.9l-17.2,33.5l75.7,38.9L732,479.7z M697.2,364.4l15.8-30.8l75.7,38.9l38.9-75.7l30.8,15.8l-38.9,75.7l75.7,38.9
		L879.4,458l-75.7-38.9l-38.9,75.7L734,479.1l38.9-75.7L697.2,364.4z M1169.1,212.8l-38.9,75.7l13,6.7l38.9-75.7l75.7,38.9l6.7-13
		l-75.7-38.9l38.9-75.7l-13-6.7l-38.9,75.7l-75.7-38.9l-6.7,13L1169.1,212.8z M1100.7,163l75.7,38.9l38.9-75.7l10.2,5.3l-38.9,75.7
		l75.7,38.9l-5.3,10.2l-75.7-38.9l-38.9,75.7l-10.2-5.3l38.9-75.7l-75.7-38.9L1100.7,163z M1153.6,217.7l-38.9,75.7l33.5,17.2
		l38.9-75.7l75.7,38.9l17.2-33.5l-75.7-38.9l38.9-75.7l-33.5-17.2l-38.9,75.7l-75.7-38.9l-17.2,33.5L1153.6,217.7z M1095.7,147.4
		l75.7,38.9l38.9-75.7l30.8,15.8l-38.9,75.7l75.7,38.9l-15.8,30.8l-75.7-38.9l-38.9,75.7l-30.8-15.8l38.9-75.7l-75.7-38.9
		L1095.7,147.4z"/>
</g>
<g id="text">
</g>
</svg>
